<svg width="256" height="218" viewBox="0 0 256 218" fill="none" xmlns="http://www.w3.org/2000/svg">
<g opacity="0.1">
<path d="M248.346 82.4087C248.346 82.4087 249.24 85.9469 246.275 89.8973C246.275 89.8973 251.119 89.7612 253.448 92.6885C253.448 92.6885 252.672 88.4336 255.999 85.1999C255.999 85.1999 251.452 85.9488 248.346 82.4087Z" fill="white"/>
</g>
<path d="M2.94257 137.016C2.94257 137.016 4.2133 142.044 0 147.659C0 147.659 6.88358 147.465 10.194 151.626C10.194 151.626 9.09053 145.579 13.8197 140.983C13.8197 140.983 7.35648 142.047 2.94257 137.016Z" fill="white"/>
<path d="M233.836 136.606C233.836 136.606 234.73 140.145 231.766 144.095C231.766 144.095 236.609 143.959 238.938 146.887C238.938 146.887 238.162 142.632 241.49 139.398C241.49 139.398 236.942 140.147 233.836 136.606Z" fill="white"/>
<g opacity="0.300003">
<g opacity="0.300003">
<path opacity="0.300003" d="M241.292 208.945C241.292 212.621 190.837 215.602 128.598 215.602C66.359 215.602 15.9043 212.621 15.9043 208.945C15.9043 205.269 66.359 202.289 128.598 202.289C190.837 202.289 241.292 205.269 241.292 208.945Z" fill="#000072"/>
</g>
</g>
<path d="M223.451 200.624C218.978 205.398 212.417 208.083 205.566 208.083H51.6141C44.7631 208.083 38.202 205.398 33.7297 200.624C31.2589 197.985 29.4323 195.045 28.2038 192.037C28.1992 192.037 28.1992 192.037 28.1992 192.033C24.3343 182.595 26.3036 172.466 32.469 168.823C42.8215 162.698 50.8043 170.183 50.8043 170.183C51.6877 168.272 52.884 166.616 54.2229 165.197C59.2657 159.834 66.3329 157.792 66.3329 157.792C62.491 137.506 71.0675 119.125 71.0675 119.125C71.0675 119.125 92.2002 133.829 128.59 133.829C164.98 133.829 186.113 119.125 186.113 119.125C186.113 119.125 194.689 137.506 190.847 157.792C190.847 157.792 202.161 161.063 206.376 170.183C206.376 170.183 214.359 162.698 224.711 168.823C232.841 173.631 233.674 189.716 223.451 200.624Z" fill="#B11313"/>
<g opacity="0.300003">
<g opacity="0.300003">
<path opacity="0.300003" d="M56.9426 188.885C58.3689 176.172 50.8047 170.686 50.8047 170.686C51.6881 168.776 52.8844 167.119 54.2233 165.7C65.9561 178.621 56.9426 188.885 56.9426 188.885Z" fill="#000072"/>
</g>
</g>
<g opacity="0.300003">
<g opacity="0.300003">
<path opacity="0.300003" d="M200.288 188.885C198.862 176.172 206.426 170.686 206.426 170.686C205.542 168.776 204.346 167.119 203.007 165.7C191.274 178.621 200.288 188.885 200.288 188.885Z" fill="#000072"/>
</g>
</g>
<g opacity="0.300003">
<g opacity="0.300003">
<path opacity="0.300003" d="M201.47 199.551C200.374 199.3 199.244 199.214 198.121 199.327C196.521 199.489 193.768 199.74 189.73 200.018C183.653 200.438 178.346 196.233 177.931 190.636C177.753 188.231 178.144 186.364 178.285 185.786C176.698 192.032 173.768 197.786 171.981 200.942C162.911 201.29 151.423 201.573 137.216 201.656C136.45 176.384 152.396 152.686 152.396 152.686C127.963 170.681 104.808 152.686 104.808 152.686C120.93 179.033 120.091 200.559 120.091 200.559L122.806 201.67C107.292 201.61 94.8853 201.313 85.223 200.942C83.4363 197.786 80.5058 192.032 78.9188 185.786C79.0662 186.387 79.483 188.383 79.2487 190.928C78.7445 196.406 73.4324 200.43 67.4781 200.019C63.4379 199.74 60.6838 199.489 59.0832 199.327C57.9602 199.214 56.8301 199.3 55.7338 199.551C38.2167 203.567 28.5098 192.889 28.1973 192.535C29.4258 195.543 31.2524 198.483 33.7232 201.122C38.1954 205.896 44.7566 208.582 51.6076 208.582H128.602H205.596C212.448 208.582 219.009 205.896 223.481 201.122C225.952 198.483 227.778 195.543 229.007 192.535C228.694 192.889 218.987 203.567 201.47 199.551Z" fill="#000072"/>
</g>
</g>
<g opacity="0.300003">
<g opacity="0.300003">
<path opacity="0.300003" d="M78.9283 185.794C78.8982 185.672 78.8789 185.605 78.8789 185.605C78.8948 185.669 78.9122 185.731 78.9283 185.794Z" fill="#000072"/>
</g>
</g>
<g opacity="0.300003">
<g opacity="0.300003">
<path opacity="0.300003" d="M178.283 185.794C178.299 185.731 178.317 185.669 178.333 185.605C178.333 185.605 178.313 185.672 178.283 185.794Z" fill="#000072"/>
</g>
</g>
<path d="M128.574 207.117H205.569C212.028 207.117 218.107 204.584 222.247 200.167C227.595 194.461 230.233 186.559 229.13 179.545C228.484 175.438 226.561 172.163 223.853 170.561C214.698 165.142 207.804 171.446 207.515 171.716C207.143 172.066 206.605 172.222 206.081 172.13C205.557 172.039 205.118 171.713 204.91 171.262C201.028 162.86 190.477 159.728 190.371 159.698C189.608 159.477 189.14 158.77 189.277 158.044C192.333 141.922 187.286 126.838 185.353 121.896C179.568 125.379 159.658 135.801 128.593 135.801C97.5281 135.801 77.6181 125.379 71.8324 121.896C69.8998 126.838 64.8528 141.922 67.9082 158.044C68.0457 158.77 67.5779 159.477 66.8143 159.698C66.7101 159.728 56.1427 162.893 52.276 171.262C52.0675 171.713 51.6281 172.039 51.1049 172.13C50.5818 172.222 50.0431 172.066 49.6701 171.716C49.3821 171.45 42.4295 165.176 33.3323 170.561C30.6246 172.163 28.7013 175.438 28.0558 179.545C26.9532 186.559 29.5905 194.461 34.9388 200.167C39.0789 204.584 45.1576 207.117 51.6164 207.117H128.574ZM205.569 210.054H51.6164C44.2293 210.054 37.2701 207.15 32.5237 202.086C26.5893 195.754 23.6675 186.956 24.8987 179.124C25.6879 174.102 28.0705 170.183 31.6073 168.09C40.0247 163.109 47.1269 166.362 50.2479 168.388C54.2067 161.715 61.5518 158.442 64.5495 157.336C61.2112 137.351 69.2533 119.798 69.6041 119.047C69.7976 118.632 70.1874 118.322 70.6612 118.207C71.1357 118.091 71.6405 118.182 72.0314 118.455C72.2381 118.598 93.2236 132.863 128.593 132.863C163.962 132.863 184.948 118.598 185.156 118.454C185.547 118.182 186.053 118.091 186.525 118.207C186.999 118.323 187.389 118.632 187.582 119.047C187.933 119.798 195.974 137.351 192.636 157.336C195.634 158.442 202.979 161.715 206.938 168.388C210.058 166.362 217.16 163.107 225.578 168.09C229.115 170.183 231.498 174.102 232.287 179.124C233.518 186.956 230.597 195.754 224.662 202.086C219.915 207.15 212.956 210.054 205.569 210.054Z" fill="#000072"/>
<path d="M51.7365 169.491C51.9116 169.6 51.9931 169.661 52.1137 169.743C52.228 169.821 52.3202 169.896 52.4246 169.973C52.6318 170.127 52.8069 170.289 52.9947 170.449C53.1868 170.607 53.3451 170.781 53.5176 170.949C53.6914 171.116 53.8544 171.288 54.0074 171.466C54.6429 172.168 55.1773 172.923 55.6537 173.704C56.6087 175.265 57.2432 176.948 57.6843 178.643C58.1143 180.345 58.2731 182.072 58.2734 183.778C58.2767 184.631 58.1734 185.481 58.1104 186.321C57.9729 187.16 57.8227 187.993 57.6318 188.813C57.5954 188.97 57.428 189.069 57.258 189.036C57.1288 189.011 57.0353 188.915 57.0136 188.803L57.01 188.782C56.8537 187.958 56.7563 187.145 56.6388 186.34L56.4103 185.142C56.3266 184.746 56.2954 184.345 56.1809 183.956C55.9666 183.178 55.8518 182.391 55.5814 181.64C55.4636 181.261 55.3712 180.878 55.243 180.505L54.8316 179.4C54.2642 177.942 53.571 176.547 52.7358 175.258C52.5184 174.942 52.3148 174.615 52.0785 174.315L51.7369 173.856L51.3706 173.42C51.1383 173.119 50.8689 172.854 50.6167 172.583C50.4867 172.454 50.3577 172.314 50.2265 172.199C50.1634 172.14 50.0961 172.07 50.0366 172.019C49.9835 171.972 49.8966 171.897 49.8907 171.886L49.5464 171.25C49.1768 170.566 49.4789 169.736 50.2214 169.396C50.7244 169.165 51.3023 169.22 51.7365 169.491Z" fill="#000072"/>
<path d="M207.268 171.887C207.262 171.897 207.175 171.972 207.121 172.02C207.062 172.071 206.995 172.141 206.932 172.2C206.8 172.314 206.671 172.454 206.541 172.583C206.289 172.855 206.02 173.119 205.788 173.42L205.421 173.856L205.08 174.316C204.843 174.615 204.64 174.942 204.422 175.258C203.587 176.547 202.894 177.942 202.327 179.4L201.915 180.506C201.787 180.878 201.695 181.261 201.577 181.64C201.306 182.392 201.192 183.178 200.977 183.957C200.863 184.345 200.832 184.746 200.748 185.142L200.519 186.34C200.402 187.146 200.305 187.958 200.148 188.782L200.145 188.803C200.115 188.96 199.952 189.066 199.78 189.038C199.65 189.017 199.553 188.925 199.526 188.813C199.336 187.993 199.185 187.16 199.048 186.321C198.985 185.481 198.882 184.631 198.885 183.779C198.885 182.073 199.044 180.345 199.474 178.643C199.915 176.948 200.55 175.265 201.504 173.704C201.981 172.924 202.515 172.168 203.151 171.467C203.304 171.289 203.467 171.116 203.641 170.949C203.813 170.781 203.971 170.607 204.163 170.45C204.351 170.29 204.526 170.127 204.734 169.973C204.838 169.896 204.93 169.822 205.044 169.744C205.165 169.662 205.247 169.601 205.422 169.491C206.107 169.061 207.041 169.224 207.508 169.855C207.825 170.283 207.846 170.816 207.613 171.248L207.268 171.887Z" fill="#000072"/>
<path d="M67.9218 158.122L68.0518 159.296L68.2142 160.608C68.2713 161.055 68.3474 161.504 68.3894 161.975C68.4362 162.445 68.4639 162.931 68.4381 163.457L68.438 163.459C68.4339 163.542 68.3579 163.606 68.268 163.602C68.2358 163.601 68.2063 163.591 68.1818 163.575C67.7131 163.271 67.3099 162.923 66.961 162.543C66.6036 162.166 66.3111 161.754 66.0259 161.332C65.747 160.908 65.4931 160.466 65.2722 160.004C65.1682 159.771 65.0605 159.536 64.9768 159.289C64.9316 159.167 64.8909 159.04 64.8544 158.911C64.815 158.771 64.7885 158.669 64.7544 158.471C64.616 157.669 65.2095 156.916 66.0801 156.789C66.9507 156.662 67.7685 157.208 67.9068 158.01C67.9113 158.035 67.9149 158.061 67.9179 158.086L67.9218 158.122Z" fill="#000072"/>
<path d="M192.467 158.471C192.433 158.669 192.407 158.771 192.367 158.911C192.331 159.04 192.29 159.166 192.245 159.289C192.161 159.536 192.053 159.77 191.949 160.004C191.728 160.466 191.474 160.908 191.196 161.332C190.91 161.754 190.618 162.166 190.261 162.543C189.912 162.923 189.508 163.271 189.04 163.575C188.966 163.623 188.865 163.607 188.813 163.539C188.794 163.515 188.785 163.487 188.783 163.459L188.783 163.457C188.757 162.931 188.785 162.445 188.832 161.975C188.874 161.504 188.95 161.055 189.007 160.608L189.17 159.296L189.3 158.122L189.303 158.091C189.393 157.284 190.176 156.696 191.053 156.778C191.93 156.861 192.568 157.582 192.479 158.389C192.476 158.415 192.471 158.445 192.467 158.471Z" fill="#000072"/>
<path d="M75.6595 172.677C75.6595 172.677 68.3576 167.464 66.3365 158.295C66.3365 158.295 62.1357 156.341 59.2324 161.63C59.2324 161.63 62.5815 177.776 78.8785 185.601C78.8785 185.601 76.5236 177.289 75.6595 172.677Z" fill="#0096F2"/>
<path d="M60.9212 161.841C61.579 164.306 65.1208 175.565 76.3934 182.536C75.6802 179.871 74.7348 176.189 74.1927 173.463C72.5017 172.114 66.9981 167.233 64.9761 159.429C64.058 159.283 62.4049 159.453 60.9212 161.841ZM78.8796 187.07C78.6277 187.07 78.3748 187.015 78.1422 186.904C61.3542 178.843 57.8097 162.594 57.667 161.906C57.6009 161.588 57.6512 161.258 57.8103 160.968C59.6238 157.665 61.9951 156.728 63.665 156.525C65.5128 156.297 66.9046 156.915 67.0572 156.986C67.493 157.189 67.804 157.564 67.9011 158.004C69.7727 166.494 76.5722 171.47 76.6406 171.519C76.9527 171.744 77.1654 172.069 77.2326 172.428C78.0753 176.925 80.3999 185.148 80.4232 185.231C80.5823 185.792 80.3668 186.388 79.8735 186.75C79.5852 186.961 79.2336 187.07 78.8796 187.07Z" fill="#000072"/>
<path d="M181.565 172.677C181.565 172.677 188.866 167.464 190.888 158.295C190.888 158.295 195.088 156.341 197.992 161.63C197.992 161.63 194.643 177.776 178.346 185.601C178.346 185.601 180.701 177.289 181.565 172.677Z" fill="#0096F2"/>
<path d="M183.032 173.463C182.49 176.19 181.545 179.871 180.831 182.536C192.103 175.565 195.645 164.308 196.304 161.84C195.405 160.391 194.343 159.583 193.141 159.436C192.803 159.395 192.495 159.412 192.244 159.449C190.218 167.242 184.722 172.115 183.032 173.463ZM178.345 187.07C177.991 187.07 177.64 186.961 177.351 186.75C176.858 186.388 176.643 185.792 176.802 185.231C176.825 185.148 179.15 176.925 179.992 172.428C180.06 172.068 180.271 171.744 180.584 171.519C180.653 171.47 187.452 166.494 189.324 158.004C189.421 157.564 189.732 157.189 190.168 156.986C190.32 156.915 191.712 156.297 193.56 156.525C195.23 156.728 197.601 157.665 199.415 160.968C199.574 161.258 199.624 161.588 199.558 161.906C199.415 162.594 195.871 178.843 179.083 186.904C178.85 187.015 178.597 187.07 178.345 187.07Z" fill="#000072"/>
<path d="M97.6621 135.166C97.6621 135.166 100.404 142.321 99.6148 152.76L108.648 159.997C108.648 159.997 111.008 147.385 106.988 136.91L97.6621 135.166Z" fill="#0096F2"/>
<path d="M101.253 152.128L107.43 157.076C107.848 153.051 108.205 145.161 105.767 138.18L99.9004 137.083C100.659 139.988 101.67 145.331 101.253 152.128ZM108.645 161.464C108.266 161.464 107.892 161.34 107.598 161.104L98.5648 153.868C98.1874 153.565 97.9859 153.117 98.0205 152.658C98.7743 142.682 96.1804 135.722 96.1542 135.653C95.9646 135.154 96.08 134.599 96.4572 134.201C96.8347 133.804 97.4155 133.624 97.9764 133.727L107.302 135.47C107.851 135.573 108.302 135.934 108.488 136.42C112.601 147.133 110.316 159.715 110.217 160.245C110.119 160.768 109.722 161.201 109.179 161.379C109.005 161.436 108.824 161.464 108.645 161.464Z" fill="#000072"/>
<path d="M159.563 135.166C159.563 135.166 156.821 142.321 157.61 152.76L148.577 159.997C148.577 159.997 146.217 147.385 150.237 136.91L159.563 135.166Z" fill="#0096F2"/>
<path d="M151.453 138.18C149.01 145.173 149.368 153.057 149.788 157.077L155.966 152.128C155.549 145.33 156.561 139.987 157.319 137.082L151.453 138.18ZM148.575 161.464C148.395 161.464 148.214 161.436 148.04 161.379C147.497 161.201 147.101 160.768 147.003 160.245C146.904 159.715 144.619 147.132 148.731 136.419C148.918 135.933 149.368 135.572 149.918 135.469L159.243 133.726C159.806 133.619 160.387 133.802 160.764 134.201C161.141 134.6 161.256 135.154 161.065 135.653C161.024 135.763 158.448 142.712 159.199 152.658C159.234 153.117 159.032 153.565 158.655 153.867L149.622 161.104C149.327 161.34 148.954 161.464 148.575 161.464Z" fill="#000072"/>
<path d="M119.602 203.999C117.329 214.276 104.373 218.978 95.2671 212.679C88.1401 207.752 80.3136 196.484 75.4779 171.775C75.0178 169.407 74.5807 166.912 74.1758 164.29L77.2539 161.604L97.6597 143.787C97.6597 143.787 117.762 172.44 119.989 194.404V194.409C120.338 197.81 120.256 201.051 119.602 203.999Z" fill="#B11313"/>
<g opacity="0.300003">
<g opacity="0.300003">
<path opacity="0.300003" d="M119.603 203.999C117.33 214.276 104.373 218.978 95.2675 212.679C88.1404 207.752 80.314 196.484 75.4782 171.775C68.6732 168 66.3359 158.295 66.3359 158.295C63.4004 145.409 66.7868 133.531 66.7868 133.531C66.1424 149.216 72.9043 156.698 75.6933 159.1C76.4704 159.769 77.0135 160.632 77.2502 161.588C77.2516 161.593 77.2529 161.598 77.2543 161.604C82.2372 181.903 90.5836 206.634 102.694 208.405C114.385 210.112 119.423 196.09 119.989 194.409C120.339 197.81 120.256 201.051 119.603 203.999Z" fill="#000072"/>
</g>
</g>
<path d="M99.4102 142.416C101.734 144.746 103.571 147.345 105.237 150.029C106.063 151.375 106.817 152.755 107.567 154.138C108.316 155.52 109.05 156.91 109.765 158.309C112.629 163.902 115.236 169.621 117.402 175.514C119.57 181.399 121.316 187.481 121.952 193.813C122.258 196.973 122.277 200.208 121.694 203.445C121.567 204.24 121.383 205.094 121.099 205.915C120.841 206.742 120.476 207.54 120.08 208.323C119.254 209.875 118.154 211.306 116.842 212.544C114.19 214.995 110.686 216.648 106.967 217.134C105.112 217.401 103.206 217.342 101.357 217.041C99.5099 216.718 97.7259 216.107 96.0948 215.266C95.2971 214.831 94.4937 214.354 93.8004 213.828L92.7607 213.042C92.4097 212.784 92.1082 212.485 91.7802 212.207C91.4636 211.921 91.1263 211.65 90.828 211.35L89.9384 210.448C89.3245 209.86 88.8153 209.206 88.2642 208.579C86.1349 206.023 84.4365 203.242 82.9456 200.408C81.4304 197.576 80.272 194.631 79.15 191.686C78.1089 188.72 77.1605 185.733 76.3803 182.716C75.9948 181.207 75.5807 179.703 75.2661 178.183C74.942 176.664 74.5537 175.156 74.3181 173.625C73.7964 170.57 73.5515 167.473 73.8385 164.332C73.8547 164.155 74.0242 164.023 74.2171 164.038C74.3515 164.048 74.4618 164.127 74.5108 164.234L74.515 164.243C75.1782 165.703 75.6799 167.176 76.1125 168.657C76.5385 170.139 76.98 171.611 77.3145 173.102C77.6345 174.596 78.0095 176.074 78.3625 177.559C78.6977 179.048 79.1297 180.511 79.5326 181.982C80.3477 184.921 81.323 187.811 82.3802 190.666C83.514 193.489 84.679 196.307 86.1603 198.96C87.6113 201.623 89.2663 204.178 91.2111 206.48C91.7134 207.039 92.1793 207.635 92.7288 208.147L93.5246 208.943C93.7906 209.207 94.0869 209.437 94.3658 209.686C94.6535 209.925 94.92 210.191 95.224 210.407L96.1221 211.074C96.7173 211.521 97.3253 211.866 97.9602 212.211C99.2423 212.857 100.624 213.318 102.052 213.558C103.481 213.776 104.952 213.817 106.388 213.596C109.272 213.203 111.984 211.883 114.021 209.984C115.036 209.028 115.888 207.928 116.533 206.728C116.838 206.12 117.128 205.503 117.329 204.855C117.554 204.216 117.698 203.561 117.814 202.839C118.331 200.023 118.336 197.073 118.057 194.131C117.775 191.186 117.207 188.237 116.471 185.314C115.74 182.389 114.826 179.488 113.81 176.614C111.771 170.863 109.28 165.225 106.527 159.696C105.84 158.312 105.133 156.937 104.411 155.568C103.693 154.197 102.937 152.843 102.236 151.463C100.822 148.709 99.4892 145.91 98.4377 142.951L98.4343 142.941C98.3348 142.662 98.5006 142.361 98.8041 142.27C99.0265 142.203 99.2615 142.267 99.4102 142.416Z" fill="#000072"/>
<path d="M79.9431 190.351C79.5136 190.351 79.0851 190.192 78.7709 189.879C78.1737 189.283 78.2132 188.355 78.8596 187.805C79.4514 187.301 93.5994 175.451 115.261 173.96C116.137 173.895 116.904 174.506 116.97 175.315C117.036 176.124 116.377 176.829 115.498 176.889C94.9865 178.301 81.1617 189.845 81.0244 189.962C80.7178 190.222 80.3298 190.351 79.9431 190.351Z" fill="#000072"/>
<path d="M137.616 203.999C139.889 214.276 152.845 218.978 161.951 212.679C169.078 207.752 176.904 196.484 181.74 171.775C182.2 169.407 182.637 166.912 183.042 164.29L179.964 161.604L159.558 143.787C159.558 143.787 139.456 172.44 137.229 194.404V194.409C136.879 197.81 136.962 201.051 137.616 203.999Z" fill="#B11313"/>
<g opacity="0.300003">
<g opacity="0.300003">
<path opacity="0.300003" d="M137.629 204.003C139.902 214.28 152.859 218.982 161.964 212.683C169.091 207.756 176.918 196.488 181.754 171.778C188.559 168.004 190.896 158.299 190.896 158.299C193.832 145.412 190.445 133.534 190.445 133.534C191.09 149.219 184.328 156.701 181.539 159.103C180.762 159.773 180.218 160.636 179.982 161.591C179.98 161.596 179.979 161.602 179.978 161.607C174.995 181.907 166.648 206.638 154.538 208.408C142.847 210.115 137.809 196.094 137.243 194.412C136.893 197.814 136.976 201.054 137.629 204.003Z" fill="#000072"/>
</g>
</g>
<path d="M158.791 142.951C157.74 145.91 156.407 148.709 154.993 151.463C154.292 152.843 153.536 154.197 152.818 155.568C152.096 156.937 151.389 158.312 150.702 159.696C147.949 165.225 145.458 170.863 143.419 176.613C142.402 179.488 141.489 182.389 140.758 185.314C140.022 188.237 139.454 191.186 139.172 194.131C138.893 197.073 138.898 200.023 139.415 202.839C139.531 203.561 139.675 204.215 139.9 204.855C140.1 205.503 140.391 206.12 140.696 206.728C141.341 207.928 142.193 209.028 143.208 209.984C145.245 211.883 147.957 213.203 150.841 213.596C152.277 213.817 153.748 213.776 155.177 213.558C156.605 213.318 157.987 212.857 159.269 212.211C159.904 211.866 160.512 211.521 161.107 211.074L162.005 210.407C162.309 210.191 162.575 209.925 162.863 209.686C163.142 209.437 163.438 209.207 163.704 208.943L164.5 208.147C165.05 207.635 165.516 207.039 166.018 206.48C167.963 204.178 169.618 201.623 171.069 198.96C172.55 196.307 173.715 193.489 174.849 190.666C175.906 187.811 176.881 184.921 177.696 181.982C178.099 180.511 178.531 179.048 178.867 177.559C179.22 176.074 179.595 174.595 179.914 173.101C180.249 171.611 180.691 170.139 181.117 168.657C181.549 167.176 182.051 165.703 182.714 164.243L182.718 164.235C182.793 164.07 182.998 163.993 183.177 164.061C183.301 164.109 183.38 164.216 183.391 164.332C183.678 167.473 183.433 170.57 182.911 173.625C182.675 175.156 182.287 176.664 181.963 178.183C181.648 179.703 181.234 181.207 180.849 182.716C180.069 185.733 179.12 188.72 178.079 191.686C176.957 194.631 175.799 197.576 174.283 200.408C172.792 203.242 171.094 206.022 168.965 208.579C168.414 209.206 167.905 209.86 167.291 210.448L166.401 211.35C166.103 211.65 165.765 211.921 165.449 212.207C165.121 212.485 164.819 212.784 164.468 213.042L163.429 213.828C162.735 214.354 161.932 214.832 161.134 215.266C159.503 216.107 157.719 216.717 155.872 217.041C154.023 217.342 152.117 217.401 150.262 217.134C146.543 216.648 143.039 214.995 140.387 212.544C139.075 211.306 137.975 209.875 137.149 208.323C136.753 207.54 136.388 206.742 136.13 205.915C135.846 205.094 135.662 204.24 135.535 203.445C134.952 200.208 134.971 196.973 135.277 193.813C135.913 187.481 137.659 181.399 139.827 175.514C141.993 169.621 144.601 163.902 147.464 158.309C148.179 156.91 148.913 155.52 149.662 154.138C150.412 152.755 151.166 151.375 151.992 150.029C153.658 147.344 155.495 144.746 157.819 142.416C158.035 142.199 158.401 142.185 158.636 142.383C158.808 142.529 158.863 142.749 158.795 142.941L158.791 142.951Z" fill="#000072"/>
<path d="M177.282 190.352C176.895 190.352 176.507 190.223 176.2 189.962C176.063 189.846 162.238 178.301 141.726 176.889C140.848 176.829 140.189 176.124 140.255 175.315C140.32 174.506 141.087 173.896 141.964 173.96C163.625 175.451 177.773 187.301 178.365 187.805C179.012 188.356 179.051 189.285 178.453 189.88C178.139 190.194 177.711 190.352 177.282 190.352Z" fill="#000072"/>
<path d="M128.635 129.6C170.351 129.6 186.914 112.822 186.914 112.822C186.914 112.822 187.609 114.267 187.947 116.32C188.507 119.72 186.939 123.13 183.953 125.195C177.39 129.735 160.676 138.386 128.614 138.386C96.5515 138.386 79.8379 129.735 73.2741 125.195C70.2881 123.13 68.7201 119.72 69.2802 116.32C69.6186 114.267 70.3135 112.822 70.3135 112.822C70.3135 112.822 86.8769 129.6 128.592 129.6" fill="#751313"/>
<g opacity="0.300003">
<g opacity="0.300003">
<path opacity="0.300003" d="M187.797 115.534C187.26 117.667 185.916 119.604 183.955 120.96C177.391 125.5 160.678 134.151 128.616 134.151C96.5533 134.151 79.8397 125.5 73.276 120.96C71.3152 119.604 69.9713 117.667 69.4346 115.534C69.3792 115.785 69.3274 116.047 69.2822 116.321C68.722 119.721 70.29 123.131 73.276 125.197C79.8397 129.737 96.5533 138.388 128.616 138.388C160.678 138.388 177.391 129.737 183.955 125.197C186.941 123.131 188.509 119.721 187.949 116.321C187.904 116.047 187.852 115.785 187.797 115.534Z" fill="#000072"/>
</g>
</g>
<path d="M128.614 139.856C96.5947 139.856 79.5981 131.407 72.3166 126.371C68.8254 123.956 67.0577 120.021 67.7036 116.101C68.0696 113.879 68.8233 112.295 68.8553 112.229C69.0738 111.775 69.5266 111.453 70.059 111.374C70.5905 111.293 71.131 111.468 71.4941 111.835C71.6541 111.996 88.1894 128.133 128.592 128.133V131.07C94.0845 131.07 76.58 119.863 71.0726 115.498C70.9931 115.82 70.9187 116.17 70.8574 116.542C70.3881 119.391 71.6812 122.258 74.2327 124.023C81.1961 128.839 97.521 136.919 128.614 136.919C159.707 136.919 176.032 128.839 182.996 124.023C185.547 122.258 186.84 119.391 186.37 116.542C186.309 116.17 186.235 115.82 186.155 115.498C180.648 119.863 163.143 131.07 128.636 131.07V128.133C169.176 128.133 185.573 111.998 185.734 111.835C186.097 111.468 186.637 111.294 187.169 111.374C187.701 111.453 188.154 111.775 188.373 112.229C188.405 112.295 189.158 113.879 189.524 116.101C190.17 120.021 188.403 123.956 184.912 126.371C177.63 131.407 160.633 139.856 128.614 139.856Z" fill="#000072"/>
<g opacity="0.3">
<path d="M2.51384 18.8096C2.51384 18.8096 3.40801 22.3478 0.443359 26.2982C0.443359 26.2982 5.2868 26.162 7.61613 29.0894C7.61613 29.0894 6.83966 24.8345 10.1672 21.6008C10.1672 21.6008 5.61955 22.3497 2.51384 18.8096Z" fill="white"/>
</g>
<path d="M70.3477 125.24L96.0682 179.147" stroke="#000072" stroke-miterlimit="10"/>
<path d="M160.041 179.145L186.307 125.239" stroke="#000072" stroke-miterlimit="10"/>
<path fill-rule="evenodd" clip-rule="evenodd" d="M126.726 147.253C126.715 147.383 126.63 147.5 126.573 147.627C126.518 147.751 126.467 147.884 126.42 148.013C126.295 148.352 126.179 148.685 126.19 149.123C126.614 149.175 127.149 149.136 127.531 149.087C127.74 149.172 127.874 149.305 128.068 149.4C128.031 149.237 128.205 149.206 128.355 149.159C128.289 149.23 128.186 149.278 128.221 149.413C128.308 149.449 128.322 149.352 128.393 149.34C128.492 149.411 128.617 149.407 128.719 149.34C128.793 149.35 128.773 149.419 128.853 149.425C128.967 149.331 128.805 149.229 128.757 149.159C128.9 149.206 129.062 149.241 129.045 149.388C129.2 149.329 129.388 149.186 129.543 149.087C129.942 149.14 130.453 149.164 130.923 149.135C130.907 148.401 130.624 147.836 130.348 147.266C130.425 147.259 130.424 147.323 130.444 147.35C130.729 147.738 130.983 148.181 131.191 148.653C131.222 148.721 131.273 148.814 131.306 148.906C131.336 148.986 131.398 149.126 131.383 149.171C131.35 149.27 131.091 149.304 131.038 149.388C130.879 149.27 130.419 149.304 129.984 149.292C129.861 149.288 129.696 149.266 129.62 149.28C129.453 149.31 129.38 149.463 129.294 149.545C129.53 149.556 129.717 149.411 129.927 149.4C130.06 149.394 130.254 149.456 130.425 149.485C130.919 149.567 131.47 149.637 131.92 149.726C131.947 148.756 131.551 147.948 131.019 147.29C131.548 147.749 131.904 148.286 132.169 148.918C132.215 149.027 132.254 149.131 132.284 149.244C132.326 149.402 132.327 149.597 132.456 149.714C132.297 149.823 132.106 149.912 131.939 150.016C131.468 149.839 130.558 149.584 129.792 149.63C129.609 149.641 129.447 149.698 129.313 149.774C129.547 149.833 129.709 149.839 130.022 149.835C130.1 149.834 130.213 149.813 130.272 149.823C130.338 149.833 130.445 149.92 130.54 149.979C131.093 150.328 131.588 150.583 132.245 150.86C132.451 150.947 132.566 151.035 132.801 150.92C132.84 152.065 132.357 152.91 131.766 153.683C131.697 153.773 131.654 153.877 131.536 153.948C131.981 153.288 132.322 152.503 132.322 151.584C132.322 151.487 132.351 151.367 132.322 151.282C132.28 151.162 131.979 151.034 131.805 150.932C131.309 150.645 130.915 150.443 130.367 150.172C130.26 150.12 130.169 150.048 130.08 150.028C129.987 150.006 129.839 150.002 129.735 149.992C129.604 149.978 129.479 149.975 129.371 149.967C129.583 150.111 129.919 150.288 130.214 150.426C130.268 150.456 130.324 150.415 130.387 150.414C130.457 151.758 130.298 153.075 129.697 154.056C129.553 154.291 129.394 154.521 129.141 154.696C129.958 153.767 130.02 152.173 129.85 150.776C130.024 150.681 129.948 150.602 129.792 150.486C129.622 150.359 129.32 150.174 129.122 150.112C129.108 150.175 129.142 150.237 129.179 150.293C129.217 150.35 129.3 150.399 129.313 150.45C129.342 150.558 129.272 150.795 129.237 150.92C129.118 151.336 128.868 151.793 128.643 152.102C128.563 152.096 128.619 152.005 128.566 151.982C128.481 151.985 128.532 152.073 128.489 152.102C128.225 151.819 128 151.35 127.876 150.92C127.832 150.767 127.763 150.582 127.799 150.45C127.828 150.345 128.008 150.25 127.991 150.124C127.816 150.15 127.652 150.259 127.512 150.353C127.372 150.447 127.227 150.548 127.129 150.655C127.14 150.708 127.222 150.717 127.244 150.764C127.118 152.177 127.122 153.769 127.972 154.684C127.882 154.676 127.841 154.605 127.799 154.563C127.008 153.767 126.796 152.539 126.707 151.27C126.687 150.99 126.667 150.716 126.726 150.438C126.742 150.38 126.841 150.466 126.899 150.426C127.201 150.282 127.474 150.12 127.761 149.967C127.511 149.992 127.239 149.984 127.014 150.04C126.818 150.088 126.604 150.222 126.42 150.317C125.857 150.606 125.264 150.919 124.79 151.246C124.694 152.322 125.085 153.19 125.557 153.948C124.877 153.113 124.245 152.185 124.311 150.92C124.571 151.075 124.965 150.823 125.174 150.727C125.754 150.46 126.374 150.116 126.822 149.823C127.147 149.853 127.528 149.829 127.799 149.786C127.461 149.515 126.593 149.651 126.075 149.75C125.727 149.817 125.402 149.912 125.193 150.016C124.994 149.932 124.842 149.819 124.656 149.726C124.792 149.512 124.821 149.151 124.925 148.906C125.178 148.307 125.573 147.777 126.055 147.29C126.043 147.382 125.941 147.462 125.883 147.543C125.463 148.131 125.186 148.86 125.174 149.714C125.617 149.651 126.145 149.573 126.669 149.485C126.839 149.456 127.016 149.398 127.148 149.4C127.361 149.405 127.561 149.544 127.799 149.545C127.743 149.432 127.635 149.351 127.512 149.28C127.117 149.308 126.676 149.264 126.324 149.304C126.288 149.308 126.241 149.321 126.19 149.34C126.194 149.338 126.076 149.388 126.094 149.388C126.014 149.388 125.819 149.214 125.73 149.195C125.914 148.455 126.329 147.86 126.726 147.253Z" fill="#000072"/>
<path fill-rule="evenodd" clip-rule="evenodd" d="M128.619 139.856V160.684V139.856Z" fill="#000072"/>
<path d="M128.619 139.856V160.684" stroke="#000072" stroke-miterlimit="10"/>
<path d="M121.554 139.714C121.554 139.714 122.798 156.776 120.977 159.797" stroke="#000072" stroke-miterlimit="10"/>
<path d="M115.965 139.386C115.965 139.386 118.769 147.28 114.717 157.943" stroke="#000072" stroke-miterlimit="10"/>
<path d="M135.059 139.854C135.059 139.854 133.759 154.972 135.639 160.12" stroke="#000072" stroke-miterlimit="10"/>
<path d="M141.696 139.386C141.696 139.386 138.723 154.377 143.138 157.943" stroke="#000072" stroke-miterlimit="10"/>
<path d="M110.152 142.385C110.152 142.385 112.952 139.925 116.63 142.385C116.63 142.385 118.547 139.943 121.734 142.721C121.734 142.721 123.473 139.68 128.59 142.385C128.59 142.385 130.749 139.843 134.624 142.385C134.624 142.385 137.668 139.563 141.233 142.245C141.233 142.245 144.412 139.059 147.164 141.905" stroke="#000072" stroke-miterlimit="10"/>
<path d="M128.208 146.291C128.108 146.226 128.009 146.164 127.91 146.106C124.425 144.049 121.896 146.348 121.896 146.348C119.311 143.877 116.913 146.348 116.913 146.348C112.895 142.031 110.725 146.348 110.725 146.348" stroke="#000072" stroke-miterlimit="10"/>
<path d="M128.105 146.338C128.105 146.338 131.282 143.992 134.624 146.338C134.624 146.338 137.872 143.434 140.714 146.468C140.714 146.468 144.934 143.477 146.508 146.407" stroke="#000072" stroke-miterlimit="10"/>
<path d="M110.725 153.557C110.725 153.557 113.303 149.646 116.017 153.889C116.017 153.889 120.884 150.794 121.919 155.116C121.919 155.116 125.949 153.23 128.766 156.334C128.766 156.334 131.75 153.121 135.206 155.572C135.206 155.572 137.514 150.657 141.421 154.449C141.421 154.449 143.827 150.351 146.511 152.689" stroke="#000072" stroke-miterlimit="10"/>
<path d="M110.461 155.897C110.461 155.897 113.819 152.761 115.287 156.336C115.287 156.336 120.124 154.323 121.474 157.943C121.474 157.943 126.472 155.53 128.553 159.391C128.553 159.391 131.51 156.826 135.065 158.569C135.065 158.569 138.332 154.044 142.114 156.715C142.114 156.715 144.805 152.484 146.415 155.118" stroke="#000072" stroke-miterlimit="10"/>
<path d="M81.0254 189.963C81.0254 189.963 95.9081 175.56 114.72 176.95L118.996 189.043C118.996 189.043 114.374 206.996 85.2344 200.947L81.0254 189.963Z" fill="#000072"/>
<path d="M81.0254 189.963C81.0254 189.963 95.9081 175.56 114.72 176.95L118.996 189.043C118.996 189.043 114.374 206.996 85.2344 200.947L81.0254 189.963Z" stroke="#000072" stroke-miterlimit="10"/>
<path d="M137.549 192.013L141.931 174.857L162.582 180.638L174.887 187.07V192.013L171.997 200.946C171.997 200.946 151.323 207.212 137.549 192.013Z" fill="#000072"/>
<path d="M137.549 192.013L141.931 174.857L162.582 180.638L174.887 187.07V192.013L171.997 200.946C171.997 200.946 151.323 207.212 137.549 192.013Z" stroke="#000072" stroke-miterlimit="10"/>
<path d="M33.041 169.164L48.939 207.116" stroke="#000072" stroke-miterlimit="10"/>
<path d="M28.9121 173.957C28.9121 173.957 31.6591 191.525 43.6506 206.832" stroke="#000072" stroke-miterlimit="10"/>
<path d="M39.4922 167.706C39.4922 167.706 51.9094 187.114 53.8278 207.425" stroke="#000072" stroke-miterlimit="10"/>
<path d="M47.459 169.164C47.459 169.164 54.99 182.986 59.2358 207.116" stroke="#000072" stroke-miterlimit="10"/>
<path d="M27.2246 182.154C27.2246 182.154 27.256 178.267 30.2573 179.774C30.2573 179.774 31.374 172.976 36.2798 177.292C36.2798 177.292 36.4656 170.391 43.3215 174.529C43.3215 174.529 45.2769 169.464 49.3836 173.956C49.3836 173.956 51.4203 172.92 52.7308 175.257" stroke="#000072" stroke-miterlimit="10"/>
<path d="M29.3887 176.331C29.3887 176.331 30.4412 171.304 34.6312 172.97C34.6312 172.97 35.4608 168.838 40.9863 170.212C40.9863 170.212 41.7993 167.51 48.3557 170.964" stroke="#000072" stroke-miterlimit="10"/>
<path d="M27.8086 184.221C27.8086 184.221 28.0399 180.325 31.2407 183.036C31.2407 183.036 32.2492 176.292 37.8412 180.637C37.8412 180.637 37.991 174.034 44.4982 177.766C44.4982 177.766 46.8923 174.078 51.065 177.291C51.065 177.291 51.8102 175.372 53.8924 177.291" stroke="#000072" stroke-miterlimit="10"/>
<path d="M27.8086 187.564C27.8086 187.564 29.1077 183.819 32.662 187.07C32.662 187.07 34.837 180.954 39.4902 185.093C39.4902 185.093 41.3648 176.929 47.0725 182.536C47.0725 182.536 47.9602 177.206 52.4998 181.15C52.4998 181.15 52.8444 177.876 55.2377 180.504" stroke="#000072" stroke-miterlimit="10"/>
<path d="M28.9121 190.393C28.9121 190.393 30.1208 187.307 33.6427 189.522C33.6427 189.522 37.4718 184.652 40.9858 188.14C40.9858 188.14 44.7568 182.898 48.3552 186.882C48.3552 186.882 50.2268 181.963 53.9276 185.387C53.9276 185.387 55.2989 183.554 56.4066 185.14" stroke="#000072" stroke-miterlimit="10"/>
<path d="M30.1855 194.024C30.1855 194.024 32.3143 190.664 35.0359 192.671C35.0359 192.671 37.4207 188.84 42.6175 192.031C42.6175 192.031 45.0906 186.846 50.1793 190.762C50.1793 190.762 52.0195 186.349 55.241 190.35C55.241 190.35 55.2532 186.069 57.5085 188.14" stroke="#000072" stroke-miterlimit="10"/>
<path d="M31.75 198.264V197.186C31.75 197.186 33.1761 193.254 36.5906 195.819C36.5906 195.819 40.1162 192.099 43.8468 194.969C43.8468 194.969 47.7019 190.323 51.189 194.027C51.189 194.027 53.2888 189.966 56.408 194.012" stroke="#000072" stroke-miterlimit="10"/>
<path d="M34.4043 199.581C34.4043 199.581 34.5364 197.489 37.9192 198.262C37.9192 198.262 41.5451 195.733 45.1503 198.091C45.1503 198.091 47.694 193.938 52.0108 197.086C52.0108 197.086 55 193.849 57.0453 196.59" stroke="#000072" stroke-miterlimit="10"/>
<path d="M36.2832 202.192C36.2832 202.192 37.59 200.363 39.9811 201.66C39.9811 201.66 43.0856 198.888 46.4557 201.195C46.4557 201.195 48.8002 197.925 52.7441 200.278C52.7441 200.278 55.2448 197.296 57.7411 199.582" stroke="#000072" stroke-miterlimit="10"/>
<path d="M38.877 204.046C38.877 204.046 39.2871 202.108 41.53 203.961C41.53 203.961 44.1502 202.412 47.4629 204.046C47.4629 204.046 51.0762 201.96 53.3514 203.602C53.3514 203.602 56.3095 201.556 58.2752 203.509" stroke="#000072" stroke-miterlimit="10"/>
<path d="M42.6602 205.4C42.6602 205.4 44.4026 203.714 48.3559 205.733C48.3559 205.733 50.5258 204.513 52.5133 204.943C52.7972 205.005 53.0774 205.1 53.347 205.237" stroke="#000072" stroke-miterlimit="10"/>
<path d="M53.6445 205.744C53.6445 205.744 55.6547 204.128 59.0693 205.241" stroke="#000072" stroke-miterlimit="10"/>
<path d="M57.5084 187.575C56.9086 188.83 59.236 208.579 59.236 208.579H88.2657L87.6476 207.117L81.0263 195.488L76.8818 184.565C67.49 183.339 58.2713 163.089 58.2713 163.089L51.7344 169.489L53.3475 172.97L56.408 179.483L57.5084 187.575Z" fill="#000072"/>
<path d="M222.994 168.245L208.783 207.116" stroke="#000072" stroke-miterlimit="10"/>
<path d="M226.771 172.991C226.771 172.991 224.244 197.795 212.385 207.712" stroke="#000072" stroke-miterlimit="10"/>
<path d="M217.518 168.011C217.518 168.011 207.894 189.292 203.324 207.354" stroke="#000072" stroke-miterlimit="10"/>
<path d="M209.523 169.876C209.523 169.876 202.518 181.968 198.885 209.602" stroke="#000072" stroke-miterlimit="10"/>
<path d="M229.13 179.544C229.13 179.544 228.364 176.105 225.936 178.42C225.936 178.42 224.921 172.273 220.132 176.069C220.132 176.069 218.78 170.83 214.577 174.857C214.577 174.857 211.305 169.85 207.231 174.857C207.231 174.857 206.389 173.589 204.418 175.256" stroke="#000072" stroke-miterlimit="10"/>
<path d="M229.375 183.024C229.375 183.024 228.475 179.65 225.163 182.154C225.163 182.154 223.237 177.926 218.461 180.638C218.461 180.638 217.342 176.357 212.379 179.145C212.379 179.145 210.912 175.886 205.969 178.202C205.969 178.202 204.813 176.141 202.742 178.384" stroke="#000072" stroke-miterlimit="10"/>
<path d="M229.381 187.07C229.381 187.07 227.489 183.437 224.257 185.79C224.257 185.79 221.237 181.85 216.872 184.997C216.872 184.997 215.221 181.156 211.024 183.778C211.024 183.778 208.877 179.544 204.421 182.536C204.421 182.536 203.604 180.304 200.365 182.153" stroke="#000072" stroke-miterlimit="10"/>
<path d="M228.599 190.352C228.599 190.352 227.484 186.76 223.072 189.739C223.072 189.739 220.066 185.128 215.577 188.542C215.577 188.542 213.637 183.843 209.523 187.682C209.523 187.682 208.226 183.859 203.327 186.764C203.327 186.764 202.61 183.773 200.52 186.339C198.429 188.906 199.967 186.292 199.967 186.292" stroke="#000072" stroke-miterlimit="10"/>
<path d="M227.41 193.917C227.41 193.917 225.814 189.907 221.88 193.056C221.88 193.056 219.418 189.781 214.363 191.849C214.363 191.849 211.307 188.471 207.764 191.848C207.764 191.848 205.351 188.414 202.183 191.275C202.183 191.275 200.949 185.639 197.971 191.085" stroke="#000072" stroke-miterlimit="10"/>
<path d="M224.995 196.699C224.995 196.699 224.898 193.035 220.653 195.982C220.653 195.982 217.856 192.388 212.932 195.768C212.932 195.768 210.27 192.069 206.669 195.977C206.669 195.977 204.216 192.393 201.173 195.863C201.173 195.863 201.078 189.887 196.971 194.572" stroke="#000072" stroke-miterlimit="10"/>
<path d="M222.998 199.8C222.998 199.8 222.366 197.801 218.976 199.345C218.976 199.345 215.293 196.799 211.653 199.28C211.653 199.28 209.552 196.56 205.706 198.997C205.706 198.997 202.542 196.458 200.368 198.892C200.368 198.892 200.56 194.348 195.945 197.837" stroke="#000072" stroke-miterlimit="10"/>
<path d="M220.553 202.226C220.553 202.226 220.033 199.97 217.216 202.226C217.216 202.226 214.019 200.248 210.423 202.637C210.423 202.637 206.885 200.574 204.609 202.637C204.609 202.637 202.17 199.594 199.589 202.637C199.589 202.637 198.799 198.616 196.307 201.93" stroke="#000072" stroke-miterlimit="10"/>
<path d="M218.396 203.388C218.396 203.388 217.228 202.404 216.057 203.828C216.057 203.828 211.382 202.564 209.516 205.103C209.516 205.103 207.508 203.088 203.911 205.103C203.911 205.103 202.154 202.128 199.519 205.103C199.519 205.103 198.067 201.147 195.346 205.103" stroke="#000072" stroke-miterlimit="10"/>
<path d="M181.305 184.243L190.635 175.965L197.974 164.505L198.882 161.961L205.042 168.245L205.525 171.366L202.186 174.856L200.364 179.143L199.587 184.243V186.983L199.524 188.81C199.524 188.81 196.338 202.638 197.974 208.08L169.558 208.729L168.631 207.115L173.272 198.815L178.367 187.803L181.305 184.243Z" fill="#000072"/>
<path d="M176.092 130.565C176.092 130.565 153.351 171.194 150.797 182.537" stroke="#000072" stroke-miterlimit="10"/>
<path d="M168.832 133.685C168.832 133.685 146.602 174.65 148.568 178.116" stroke="#000072" stroke-miterlimit="10"/>
<path d="M190.058 131.448C190.058 131.448 173.158 173.829 165.297 183.732" stroke="#000072" stroke-miterlimit="10"/>
<path d="M159.566 139.855C159.566 139.855 164.709 134.845 165.981 139.027C165.981 139.027 169.434 134.346 172.247 137.552C172.247 137.552 178.948 132.585 180.021 138.143C180.021 138.143 186.113 133.723 186.621 139.855C186.621 139.855 188.833 139.279 188.779 144.43C188.779 144.43 190.767 148.433 190.19 149.988" stroke="#000072" stroke-miterlimit="10"/>
<path d="M168.041 135.167C168.041 135.167 172.068 131.818 174.367 133.687C174.367 133.687 179.785 128.63 182.61 132.837C182.61 132.837 187.969 131.965 188.064 136.374C188.064 136.374 190.233 138.88 190.064 139.857C190.064 139.857 187.581 155.22 182.831 164.349C182.831 164.349 176.533 184.243 170.119 185.835" stroke="#000072" stroke-miterlimit="10"/>
<path d="M158.789 142.941C158.789 142.941 162.009 139.241 163.918 142.941C163.918 142.941 168.639 138.751 168.831 142.941C168.831 142.941 176.283 139.624 177.267 143.786C177.267 143.786 182.769 140.175 183.882 146.349C183.882 146.349 189.172 144.527 187.494 150.81C187.494 150.81 190.429 150.103 189.875 154.054" stroke="#000072" stroke-miterlimit="10"/>
<path d="M155.891 147.567C155.891 147.567 160.569 143.543 161.158 148.279C161.158 148.279 165.689 144.218 165.936 149.351C165.936 149.351 174.031 145.525 173.846 150.81C173.846 150.81 179.5 149.152 180.515 154.126C180.515 154.126 185.399 152.626 185.907 156.823C185.907 156.823 189.51 156.617 189.172 159.296" stroke="#000072" stroke-miterlimit="10"/>
<path d="M153.402 152.692C153.402 152.692 157.007 147.151 159.199 152.66C159.199 152.66 162.115 150.238 163.438 153.669C163.438 153.669 170.529 151.49 171.15 156.337C171.15 156.337 175.949 153.562 178.341 157.945C178.341 157.945 183.907 157.099 184.716 160.122C184.716 160.122 187.254 159.395 188.164 161.964" stroke="#000072" stroke-miterlimit="10"/>
<path d="M151.984 155.901C151.984 155.901 155.32 154.296 156.315 157.944C156.315 157.944 159.77 155.161 161.157 158.499C161.157 158.499 166.814 156.507 168.628 160.683C168.628 160.683 174.756 158.544 176.748 162.483C176.748 162.483 180.904 161.466 183.171 164.062C183.171 164.062 185.928 163.108 186.304 165.7" stroke="#000072" stroke-miterlimit="10"/>
<path d="M149.598 160.187C149.598 160.187 154.222 157.023 154.215 162.331C154.215 162.331 158.232 159.713 158.793 162.981C158.793 162.981 165.047 161.311 166.593 165.7C166.593 165.7 171.8 162.206 174.371 167.539C174.371 167.539 179.728 164.898 180.943 169.25" stroke="#000072" stroke-miterlimit="10"/>
<path d="M147.889 165.268C147.889 165.268 151.463 161.72 152.656 165.7C152.656 165.7 155.946 163.136 157.161 166.776C157.161 166.776 162.917 165.306 164.861 169.25C164.861 169.25 170.028 167.208 172.542 171.263C172.542 171.263 177.009 168.641 179.316 172.633" stroke="#000072" stroke-miterlimit="10"/>
<path d="M146.281 168.618C146.281 168.618 149.944 166.531 151.097 169.249C151.097 169.249 154.305 167.208 155.54 170.241C155.54 170.241 161.833 169.05 162.809 172.632C162.809 172.632 168.553 171.12 170.784 174.689C170.784 174.689 175.148 173.266 177.675 176.088C177.675 176.088 178.697 175.524 178.695 178.116" stroke="#000072" stroke-miterlimit="10"/>
<path d="M144.889 171.773C144.889 171.773 148.803 169.925 149.597 172.294C149.597 172.294 153.797 170.745 154.135 173.396C154.135 173.396 161.258 171.912 161.681 175.779C161.681 175.779 167.987 174.041 168.919 178.117C168.919 178.117 174.386 176.046 175.594 180.638C175.594 180.638 177.727 179.708 178.345 182.537" stroke="#000072" stroke-miterlimit="10"/>
<path d="M77.5332 127.608C77.5332 127.608 97.8046 158.286 102.542 178.116" stroke="#000072" stroke-miterlimit="10"/>
<path d="M89.1621 133.53C89.1621 133.53 104.306 159.072 109.335 175.977" stroke="#000072" stroke-miterlimit="10"/>
<path d="M67.7812 132.476C67.7812 132.476 85.4354 178.56 91.2166 182.154" stroke="#000072" stroke-miterlimit="10"/>
<path d="M67.0781 141.079C67.0781 141.079 81.3568 182.145 85.6161 184.246" stroke="#000072" stroke-miterlimit="10"/>
<path d="M69.0566 134.332C69.0566 134.332 69.4505 129.511 73.7162 132.303C73.7162 132.303 75.4158 128.85 80.2482 131.863C80.2482 131.863 81.5312 130.014 85.613 131.519" stroke="#000072" stroke-miterlimit="10"/>
<path d="M68.0352 143.787C68.0352 143.787 68.4175 140.394 71.4276 141.721C71.4276 141.721 72.3594 137.02 77.5395 140.306C77.5395 140.306 78.5008 135.362 84.2187 138.388C84.2187 138.388 87.8121 134.055 91.9505 138.388C91.9505 138.388 94.9788 135.798 97.1903 138.388" stroke="#000072" stroke-miterlimit="10"/>
<path d="M67.0781 139.714C67.0781 139.714 68.4059 137.649 70.0009 138.388C70.0009 138.388 71.7205 133.899 75.434 135.898C75.434 135.898 77.7873 132.644 82.034 134.755C82.034 134.755 86.4555 132.881 89.1654 134.043" stroke="#000072" stroke-miterlimit="10"/>
<path d="M66.5879 150.218C66.5879 150.218 67.0983 147.935 69.9948 149.249C69.9948 149.249 70.394 145.798 73.7131 147.581C73.7131 147.581 74.5645 142.843 80.4717 145.777C80.4717 145.777 81.068 140.249 87.3374 143.786C87.3374 143.786 90.0946 139.547 94.2707 142.604C94.2707 142.604 94.7362 140.19 97.936 142.243" stroke="#000072" stroke-miterlimit="10"/>
<path d="M67.0781 155.549C67.0781 155.549 68.3996 151.772 71.7724 154.054C71.7724 154.054 72.4699 150.026 75.9372 152.69C75.9372 152.69 78.506 148.988 82.268 150.81C82.268 150.81 85.6527 145.787 90.0415 148.665C90.0415 148.665 93.2283 144.796 96.6688 147.081C96.6688 147.081 96.7913 145.605 100.048 146.35" stroke="#000072" stroke-miterlimit="10"/>
<path d="M68.0508 159.296C68.0508 159.296 68.9587 155.412 73.2332 157.944C73.2332 157.944 75.2181 155.287 77.8041 157.076C77.8041 157.076 80.0286 152.583 84.6247 155.168C84.6247 155.168 87.7099 151.077 92.6655 153.652C92.6655 153.652 94.9301 150.236 99.2925 152.193C99.2925 152.193 98.9221 150.185 102.235 151.463" stroke="#000072" stroke-miterlimit="10"/>
<path d="M69.7285 163.089C69.7285 163.089 70.7236 159.681 74.1738 161.391C74.1738 161.391 76.2296 157.825 79.3522 160.514C79.3522 160.514 80.7288 155.98 86.5709 159.079C86.5709 159.079 89.3585 155.121 94.4944 157.057C94.4944 157.057 96.5335 153.314 101.131 155.604C101.131 155.604 102.087 153.746 104.408 155.231" stroke="#000072" stroke-miterlimit="10"/>
<path d="M69.998 166.474C69.998 166.474 71.3982 162.11 75.2225 163.09C75.2225 163.09 78.6588 161.387 80.3909 162.946C80.3909 162.946 85.3312 159.53 87.8681 161.964C87.8681 161.964 92.9729 158.249 96.0665 160.615C96.0665 160.615 99.5524 157.92 102.965 159.797C102.965 159.797 104.834 157.899 107.144 159.296" stroke="#000072" stroke-miterlimit="10"/>
<path d="M109.336 164.507C109.336 164.507 105.78 160.182 104.955 164.25C104.955 164.25 98.8853 160.903 98.313 165.7C98.313 165.7 92.351 161.578 90.2541 166.963C90.2541 166.963 84.1576 163.878 82.608 168.222C82.608 168.222 78.7199 164.478 78.1193 169.25C78.1193 169.25 76.0893 168.536 75.7344 170.388" stroke="#000072" stroke-miterlimit="10"/>
<path d="M110.939 168.222C110.939 168.222 107.652 164.88 106.777 168.669C106.777 168.669 101.945 165.743 99.9013 169.699C99.9013 169.699 94.6902 167.275 92.6652 171.772C92.6652 171.772 87.0908 168.912 85.612 173.843C85.612 173.843 81.7836 172.417 80.4738 175.977C80.4738 175.977 78.5055 175.497 77.5332 178.116" stroke="#000072" stroke-miterlimit="10"/>
<path d="M111.71 171.087C111.71 171.087 109.229 166.96 108.07 172.098C108.07 172.098 104.991 170.336 101.386 173.957C101.386 173.957 96.7754 172.503 94.2443 175.313C94.2443 175.313 90.5922 174.388 87.9423 176.855C87.7968 176.99 87.6543 177.136 87.5156 177.292" stroke="#000072" stroke-miterlimit="10"/>
<path d="M87.645 177.135C87.645 177.135 84.2392 176.85 82.47 179.773C82.47 179.773 80.0124 179.87 78.8776 182.536C77.743 185.202 78.3452 182.154 78.3452 182.154" stroke="#000072" stroke-miterlimit="10"/>
<path fill-rule="evenodd" clip-rule="evenodd" d="M128.308 19.2124C167.428 19.2124 197.522 56.6989 197.522 88.0002C197.522 119.302 142.363 131.951 128.308 132.568C114.253 133.185 56.2266 118.384 56.2266 87.0823C56.2266 55.7804 89.1884 19.2124 128.308 19.2124Z" fill="#FF850B"/>
<path d="M128.308 20.7348C89.2947 20.7348 57.8792 57.0309 57.8792 87.0826C57.8792 94.8971 61.7367 102.246 69.3451 108.925C86.2923 123.802 117.213 131.063 127.436 131.064C127.717 131.064 127.98 131.059 128.229 131.048C135.636 130.723 152.7 127.213 167.446 120.429C180.412 114.464 195.868 103.996 195.868 88.0003C195.868 56.8939 166.356 20.7348 128.308 20.7348ZM127.478 134.107C116.511 134.107 84.9043 126.789 67.0635 111.128C58.7753 103.852 54.5723 95.7621 54.5723 87.0826C54.5723 71.4147 62.7261 53.9538 76.3838 40.3751C90.8839 25.9588 109.809 17.6904 128.308 17.6904C146.921 17.6904 164.866 25.9245 178.838 40.8758C191.572 54.5034 199.175 72.12 199.175 88.0003C199.175 101.893 188.714 114.048 168.924 123.153C153.748 130.134 136.083 133.751 128.386 134.089C128.102 134.101 127.798 134.107 127.478 134.107Z" fill="#000072"/>
<g opacity="0.5">
<g opacity="0.5">
<path opacity="0.5" fill-rule="evenodd" clip-rule="evenodd" d="M128.301 19.2139C152.344 19.2139 172.975 33.3757 185.308 51.5565C185.436 52.144 185.56 52.734 185.668 53.3286C174.408 38.1332 156.852 28.1132 137.409 25.4102C138.656 25.8438 139.379 26.3588 139.379 26.9115C139.379 28.4565 133.727 29.7088 126.755 29.7088C119.784 29.7088 114.132 28.4565 114.132 26.9115C114.132 26.3588 114.854 25.8438 116.101 25.4102C96.6575 28.1138 79.1033 38.1344 67.8438 53.3286L67.906 53.0083C80.8891 34.1012 103.341 19.2139 128.301 19.2139Z" fill="white"/>
</g>
</g>
<path fill-rule="evenodd" clip-rule="evenodd" d="M195.664 97.6176C185.937 121.927 140.824 132.019 128.308 132.568C115.921 133.112 69.3875 121.677 58.5156 97.5285C59.3492 84.3751 66.6074 80.7801 80.0301 87.2079C85.55 89.8507 91.1654 92.6074 95.6147 90.5084C121.012 78.5237 136.52 80.7831 153.903 90.5084C162.032 95.0567 169.966 88.2722 174.943 86.2038C190.796 79.6139 198.069 84.2229 195.664 97.6176Z" fill="white"/>
<g opacity="0.300003">
<g opacity="0.300003">
<path opacity="0.300003" fill-rule="evenodd" clip-rule="evenodd" d="M197.229 82.5336C197.426 84.3705 197.53 86.1957 197.53 87.9997C197.53 89.1529 197.447 90.2766 197.302 91.3798L197.317 91.05C195.385 111.939 149.694 127.889 125.114 129.177C104.596 130.252 63.6163 109.918 56.7258 91.05C56.7386 91.4412 56.7604 91.8316 56.7796 92.2216C56.4285 90.5598 56.2344 88.8485 56.2344 87.0818C56.2344 85.6754 56.3036 84.2584 56.4336 82.8338L56.5406 82.5288C72.5583 103.731 98.8348 116.372 126.887 116.372C154.937 116.372 181.211 103.731 197.229 82.5336Z" fill="#000072"/>
</g>
</g>
<path fill-rule="evenodd" clip-rule="evenodd" d="M103 72.5321C100.812 71.6342 98.5729 70.1294 96.2848 68.0205C92.3181 68.1862 89.1445 72.0873 89.1445 76.875C89.1445 81.7682 92.4584 85.7354 96.5463 85.7354C100.635 85.7354 103.949 81.7682 103.949 76.875C103.949 75.297 103.604 73.8157 103 72.5321Z" fill="#000072"/>
<path d="M165.121 64.1889C162.451 67.454 159.826 69.9787 157.246 71.763C153.451 74.3881 149.344 74.8476 148.889 71.9565C150.93 71.7413 153.057 70.8676 155.27 69.3374C160.723 65.5645 162.428 63.1354 165.121 64.1889Z" fill="#000072"/>
<path fill-rule="evenodd" clip-rule="evenodd" d="M152.674 72.5321C154.861 71.6342 157.1 70.1294 159.389 68.0205C163.356 68.1862 166.529 72.0873 166.529 76.875C166.529 81.7682 163.216 85.7354 159.127 85.7354C155.039 85.7354 151.725 81.7682 151.725 76.875C151.725 75.297 152.069 73.8157 152.674 72.5321Z" fill="#000072"/>
<path fill-rule="evenodd" clip-rule="evenodd" d="M156.072 74.6201C154.871 74.6201 153.898 75.5745 153.898 76.7512C153.898 77.928 154.871 78.8823 156.072 78.8823C157.272 78.8823 158.245 77.928 158.245 76.7512C158.245 75.5745 157.272 74.6201 156.072 74.6201Z" fill="white"/>
<path fill-rule="evenodd" clip-rule="evenodd" d="M126.88 78.4292C132.173 78.4292 136.464 81.063 136.464 84.3115C136.464 87.5605 132.173 90.1943 126.88 90.1943C121.586 90.1943 117.295 87.5605 117.295 84.3115C117.295 81.063 121.586 78.4292 126.88 78.4292Z" fill="#000072"/>
<path d="M136.04 97.4043C132.666 97.4043 129.403 96.2492 126.899 94.1849C124.102 96.5299 120.247 97.6207 116.458 97.0661C112.056 96.4221 108.323 93.6445 106.715 89.817C106.386 89.0328 106.809 88.1513 107.661 87.8479C108.512 87.5448 109.47 87.9346 109.799 88.7186C110.984 91.5384 113.734 93.5849 116.977 94.0592C120.222 94.5339 123.524 93.3737 125.6 91.032C125.91 90.6823 126.373 90.4773 126.863 90.4723C127.358 90.4729 127.82 90.6632 128.139 91.0064C130.304 93.3425 133.575 94.5834 136.903 94.3264C140.226 94.0698 143.232 92.3429 144.943 89.7074C145.412 88.9854 146.428 88.75 147.211 89.182C147.994 89.6132 148.25 90.5481 147.781 91.2695C145.525 94.7447 141.562 97.0218 137.179 97.3602C136.799 97.3898 136.419 97.4043 136.04 97.4043Z" fill="#000072"/>
<path fill-rule="evenodd" clip-rule="evenodd" d="M126.884 91.9956C130.33 95.0118 133.716 96.2948 137.043 95.8442C137.866 115.724 115.975 114.915 116.72 95.5634C120.798 96.04 124.185 94.8513 126.884 91.9956Z" fill="#000072"/>
<path d="M118.367 97.1877C118.531 102.253 120.482 106.236 123.733 108.008C125.88 109.178 128.307 109.194 130.391 108.052C133.503 106.345 135.292 102.526 135.407 97.4483C132.594 97.3653 129.767 96.2444 126.968 94.1011C124.559 96.1539 121.702 97.1879 118.442 97.1879C118.417 97.1879 118.392 97.1879 118.367 97.1877ZM127.131 111.936C125.394 111.936 123.648 111.499 122.048 110.627C117.341 108.062 114.797 102.551 115.069 95.5085L115.133 93.8426L116.929 94.0525C120.46 94.4643 123.304 93.4642 125.637 90.9955L126.771 89.7954L128.023 90.8913C131.111 93.5927 133.986 94.7204 136.803 94.3371L138.626 94.0903L138.696 95.7852C138.986 102.78 136.575 108.204 132.083 110.667C130.541 111.513 128.84 111.936 127.131 111.936Z" fill="#000072"/>
<path fill-rule="evenodd" clip-rule="evenodd" d="M127.06 102.99C124.117 102.99 121.352 104.287 119.623 106.479C123.603 111.696 130.659 111.782 134.461 106.434C132.73 104.269 129.982 102.99 127.06 102.99Z" fill="#FF0066"/>
<path d="M121.768 106.513C123.301 108.069 125.229 108.912 127.229 108.895C129.163 108.866 130.946 108.026 132.35 106.505C130.951 105.242 129.048 104.512 127.064 104.512C125.072 104.512 123.167 105.244 121.768 106.513ZM127.126 111.94C123.721 111.94 120.502 110.274 118.274 107.353L117.596 106.463L118.289 105.584C120.323 103.006 123.603 101.467 127.064 101.467C130.497 101.467 133.761 102.986 135.796 105.531L136.477 106.383L135.849 107.268C133.774 110.186 130.652 111.888 127.283 111.939C127.231 111.94 127.178 111.94 127.126 111.94Z" fill="#000072"/>
<path fill-rule="evenodd" clip-rule="evenodd" d="M189.474 56.1489C178.856 39.9947 166.125 29.0578 151.281 23.3397C180.399 -14.2235 193.129 -3.28714 189.474 56.1489Z" fill="#FF850B"/>
<path d="M153.814 22.7008C166.846 28.1765 178.349 37.7748 188.081 51.2879C189.857 14.6649 184.461 4.91842 179.498 3.31131C175.71 2.0857 168.2 4.52293 153.814 22.7008ZM190.818 61.1411L188.054 56.9371C177.67 41.1394 165.081 30.308 150.638 24.7439L148.727 24.0078L149.93 22.4554C163.249 5.27298 173.277 -1.93119 180.595 0.439449C189.93 3.46245 193.274 21.1918 191.12 56.2351L190.818 61.1411Z" fill="#000072"/>
<path fill-rule="evenodd" clip-rule="evenodd" d="M148.749 58.1142C151.198 57.1897 153.667 57.5248 154.262 58.8628C154.858 60.2009 153.356 62.0357 150.908 62.9608C148.459 63.8852 145.99 63.5496 145.394 62.2115C144.798 60.8734 146.301 59.0387 148.749 58.1142Z" fill="white"/>
<path fill-rule="evenodd" clip-rule="evenodd" d="M106.087 58.026C103.638 57.101 101.17 57.4367 100.574 58.7745C99.9779 60.1124 101.48 61.947 103.929 62.8713C106.377 63.7956 108.846 63.4606 109.442 62.1228C110.038 60.7849 108.536 58.9503 106.087 58.026Z" fill="white"/>
<path fill-rule="evenodd" clip-rule="evenodd" d="M97.6343 74.6201C96.4335 74.6201 95.4609 75.5745 95.4609 76.7512C95.4609 77.928 96.4335 78.8823 97.6343 78.8823C98.8344 78.8823 99.807 77.928 99.807 76.7512C99.807 75.5745 98.8344 74.6201 97.6343 74.6201Z" fill="white"/>
<path fill-rule="evenodd" clip-rule="evenodd" d="M65.3969 56.9194C76.0145 40.7646 88.7452 29.8282 103.589 24.1096C74.4716 -13.4537 61.7409 -2.51673 65.3969 56.9194Z" fill="#FF850B"/>
<path d="M77.1341 3.81602C76.4696 3.81602 75.8832 3.91506 75.366 4.08265C70.4029 5.68982 65.0074 15.4359 66.7831 52.0586C76.5146 38.5461 88.0173 28.9479 101.049 23.4716C88.6283 7.77645 81.3326 3.81602 77.1341 3.81602ZM64.0471 61.9126L63.7452 57.0061C61.5898 21.963 64.9336 4.23388 74.2688 1.21065C81.5825 -1.15709 91.6137 6.04287 104.934 23.2262L106.137 24.7786L104.226 25.5147C89.7817 31.0794 77.193 41.9109 66.8104 57.7082L64.0471 61.9126Z" fill="#000072"/>
<g opacity="0.649994">
<g opacity="0.649994">
<path opacity="0.649994" fill-rule="evenodd" clip-rule="evenodd" d="M99.9531 25.6372C101.155 25.0903 102.371 24.58 103.602 24.1052C85.5558 0.824472 73.8073 -3.81754 68.3496 10.1604C74.1617 0.331306 84.6953 5.48953 99.9512 25.636L99.9531 25.6372Z" fill="white"/>
</g>
</g>
<path fill-rule="evenodd" clip-rule="evenodd" d="M73.3446 45.9692C78.5205 40.0754 84.3864 34.9736 90.943 30.6655C76.2452 4.31425 70.3787 9.41532 73.3446 45.9692Z" fill="#000072"/>
<path d="M77.1303 15.6302C77.058 15.6302 77.0086 15.6391 76.9798 15.6466C76.8028 15.6925 75.2319 16.2885 74.5597 22.9997C74.1068 27.5215 74.1604 33.9424 74.717 42.1204C78.9906 37.6689 83.7184 33.6741 88.824 30.2029C81.0902 16.5937 77.8821 15.6302 77.1303 15.6302ZM72.0098 49.9131L71.6993 46.0821C69.4424 18.2671 72.6488 13.6067 76.0834 12.7162C80.1907 11.6487 85.0775 16.8107 92.4172 29.9697L93.0701 31.1401L91.9068 31.9042C85.5049 36.1105 79.6932 41.1645 74.6334 46.9258L72.0098 49.9131Z" fill="#000072"/>
<g opacity="0.300003">
<g opacity="0.300003">
<path opacity="0.300003" fill-rule="evenodd" clip-rule="evenodd" d="M75.2599 14.9856C69.8964 18.6785 66.4319 28.6698 64.8672 44.9586C64.9614 48.6992 65.1389 52.6853 65.3991 56.9185C66.1923 55.5977 67.031 54.2922 67.9172 53.0074L67.855 53.3277C72.1396 47.3111 76.7484 42.0951 81.68 37.679C78.7961 40.1832 76.0787 42.8792 73.5274 45.7662C73.4774 45.8228 73.4274 45.8789 73.3774 45.9367C73.3729 45.9413 73.3685 45.9466 73.3634 45.9532C73.3589 45.9579 73.3551 45.9627 73.3505 45.9673C71.9134 28.2564 72.5503 17.9293 75.2599 14.9856ZM179.614 14.2158C184.978 17.9092 188.442 27.9 190.006 44.1887C189.912 47.9293 189.735 51.916 189.475 56.1487C188.681 54.8278 187.842 53.5229 186.956 52.2375L187.018 52.5578C182.734 46.5413 178.126 41.3253 173.193 36.9098C176.078 39.414 178.795 42.1099 181.346 44.9969C181.396 45.053 181.446 45.1096 181.496 45.1669C181.5 45.1721 181.505 45.1774 181.51 45.1833C181.515 45.1886 181.518 45.1928 181.523 45.1981C182.961 27.4871 182.323 17.1594 179.614 14.2158Z" fill="#000072"/>
</g>
</g>
<g opacity="0.649994">
<g opacity="0.649994">
<path opacity="0.649994" fill-rule="evenodd" clip-rule="evenodd" d="M154.932 24.8706C153.731 24.3237 152.514 23.8134 151.283 23.3391C169.329 0.0577488 181.079 -4.58499 186.536 9.39338C180.724 -0.436026 170.19 4.72285 154.934 24.87L154.932 24.8706Z" fill="white"/>
</g>
</g>
<path fill-rule="evenodd" clip-rule="evenodd" d="M181.516 45.1987C176.341 39.3043 170.475 34.2027 163.918 29.8945C178.616 3.54369 184.483 8.6452 181.516 45.1987Z" fill="#000072"/>
<path d="M166.043 29.4338C171.149 32.9057 175.877 36.9009 180.15 41.3517C180.706 33.1736 180.76 26.7529 180.307 22.2309C179.635 15.5196 178.064 14.9235 177.887 14.8777C177.561 14.7944 174.522 14.5133 166.043 29.4338ZM182.856 49.145L180.233 46.1573C175.175 40.3967 169.364 35.3425 162.96 31.1351L161.797 30.371L162.45 29.2007C169.789 16.0427 174.671 10.8809 178.784 11.9474C182.218 12.8378 185.425 17.4983 183.167 45.3137L182.856 49.145Z" fill="#000072"/>
<path d="M77.1348 3.81557C76.4702 3.81557 75.8839 3.91461 75.3667 4.0822C70.4035 5.68939 65.0075 15.4359 66.7833 52.059C76.5152 38.546 88.0179 28.9475 101.05 23.4713C88.629 7.77604 81.3333 3.81557 77.1348 3.81557ZM64.0468 61.9126L63.7449 57.0062C61.59 21.9628 64.9343 4.23317 74.2694 1.21017C81.5831 -1.15759 91.6143 6.04243 104.934 23.226L106.138 24.7784L104.227 25.5145C89.7824 31.0792 77.1937 41.9108 66.8103 57.7083L64.0468 61.9126Z" fill="#000072"/>
<path d="M128.308 20.7348C89.2947 20.7348 57.8792 57.0309 57.8792 87.0826C57.8792 94.8971 61.7367 102.246 69.3451 108.925C86.2923 123.802 117.213 131.063 127.436 131.064C127.717 131.064 127.98 131.059 128.229 131.048C135.636 130.723 152.7 127.213 167.446 120.429C180.412 114.464 195.868 103.996 195.868 88.0003C195.868 56.8939 166.356 20.7348 128.308 20.7348ZM127.478 134.107C116.511 134.107 84.9043 126.789 67.0635 111.128C58.7753 103.852 54.5723 95.7621 54.5723 87.0826C54.5723 71.4147 62.7261 53.9538 76.3838 40.3751C90.8839 25.9588 109.809 17.6904 128.308 17.6904C146.921 17.6904 164.866 25.9245 178.838 40.8758C191.572 54.5034 199.175 72.12 199.175 88.0003C199.175 101.893 188.714 114.048 168.924 123.153C153.748 130.134 136.083 133.751 128.386 134.089C128.102 134.101 127.798 134.107 127.478 134.107Z" fill="#000072"/>
<g opacity="0.559998">
<g opacity="0.559998">
<path opacity="0.559998" fill-rule="evenodd" clip-rule="evenodd" d="M129.994 80.7859C131.439 81.1369 132.508 81.7763 132.383 82.2151C132.257 82.6534 130.984 82.7248 129.539 82.3738C128.093 82.0234 127.023 81.3835 127.149 80.9445C127.274 80.5063 128.548 80.4349 129.994 80.7859Z" fill="white"/>
</g>
</g>
<path d="M91.75 64.1889C94.4206 67.454 97.0457 69.9787 99.6252 71.763C103.42 74.3881 107.528 74.8476 107.983 71.9565C105.942 71.7413 103.814 70.8676 101.601 69.3374C96.1486 65.5645 94.443 63.1354 91.75 64.1889Z" fill="#000072"/>
<path d="M153.814 22.7008C166.846 28.1765 178.349 37.7748 188.081 51.2879C189.857 14.6649 184.461 4.91842 179.498 3.31131C175.71 2.0857 168.2 4.52293 153.814 22.7008ZM190.818 61.1411L188.054 56.9371C177.67 41.1394 165.081 30.308 150.638 24.7439L148.727 24.0078L149.93 22.4554C163.249 5.27298 173.277 -1.93119 180.595 0.439449C189.93 3.46245 193.274 21.1918 191.12 56.2351L190.818 61.1411Z" fill="#000072"/>
</svg>
