<svg width="24" height="23" viewBox="0 0 24 23" fill="none" xmlns="http://www.w3.org/2000/svg">
<g opacity="0.7">
<path d="M22.334 0.429199H15.6673C14.9309 0.429199 14.334 0.974243 14.334 1.64659V7.73354C14.334 8.40588 14.9309 8.95093 15.6673 8.95093H22.334C23.0703 8.95093 23.6673 8.40588 23.6673 7.73354V1.64659C23.6673 0.974243 23.0703 0.429199 22.334 0.429199Z" fill="white"/>
<path d="M7.99998 13.5161H1.33333C0.596952 13.5161 0 14.0612 0 14.7335V20.8206C0 21.4929 0.596952 22.038 1.33333 22.038H7.99998C8.73636 22.038 9.33331 21.4929 9.33331 20.8206V14.7335C9.33331 14.0612 8.73636 13.5161 7.99998 13.5161Z" fill="white"/>
<path d="M4.66666 8.95093C5.27949 8.95093 5.88632 8.84072 6.45251 8.62659C7.01869 8.41246 7.53314 8.09861 7.96648 7.70295C8.39982 7.30729 8.74356 6.83758 8.97808 6.32063C9.21261 5.80367 9.33331 5.24961 9.33331 4.69006C9.33331 4.13052 9.21261 3.57645 8.97808 3.0595C8.74356 2.54255 8.39982 2.07284 7.96648 1.67718C7.53314 1.28152 7.01869 0.967667 6.45251 0.753538C5.88632 0.53941 5.27949 0.429199 4.66666 0.429199C3.42898 0.429199 2.242 0.878111 1.36683 1.67718C0.491664 2.47624 0 3.56001 0 4.69006C0 5.82012 0.491664 6.90388 1.36683 7.70295C2.242 8.50202 3.42898 8.95093 4.66666 8.95093Z" fill="white"/>
<path d="M23.6673 20.8206L19.0006 13.5161L14.334 20.8206C14.334 21.4929 14.9309 22.038 15.6673 22.038H22.334C23.0703 22.038 23.6673 21.4929 23.6673 20.8206Z" fill="white"/>
</g>
</svg>
