<svg width="280" height="287" viewBox="0 0 280 287" fill="none" xmlns="http://www.w3.org/2000/svg">
<path opacity="0.3" fill-rule="evenodd" clip-rule="evenodd" d="M238.797 32.6164C231.76 40.2127 224.691 47.791 217.546 55.4906C226.98 63.0509 232.503 73.3319 239.076 82.8587C244.054 90.0554 249.51 96.9334 254.686 104C255.776 105.472 256.893 105.558 258.574 105.019C264.971 102.945 271.404 101.01 277.842 99.0794C278.477 98.8863 279.248 99.1332 279.946 99.1826L280 100.036C279.288 100.296 278.567 100.592 277.851 100.817C271.278 102.864 264.723 104.974 258.096 106.891C256.15 107.457 255.299 108.346 254.875 110.335C251.348 127.372 253.168 144.123 256.997 160.891C258.096 165.731 259.831 168.609 265.349 168.905C269.152 169.094 272.891 170.319 276.648 171.087C276.72 171.343 276.788 171.599 276.842 171.864C276.225 172.075 275.549 172.524 274.986 172.42C270.33 171.586 265.689 170.671 261.065 169.677C259.376 169.314 258.047 169.551 256.614 170.566C246.802 177.534 239.923 186.791 234.679 197.247C231.178 204.206 228.273 211.434 225.097 218.532C224.655 219.529 224.137 220.494 223.556 221.706C230.588 228.01 237.765 234.439 244.955 240.868C244.126 242.753 243.329 241.914 242.437 241.124C236.981 236.252 231.507 231.413 226.07 226.542C221.501 222.465 221.52 222.456 216.005 225.356C208.518 229.303 200.967 233.119 193.574 237.213C187.29 240.675 181.812 245.097 177.298 250.655C176.356 251.822 176.126 252.769 176.68 254.242C179.6 261.874 182.402 269.547 185.231 277.201C185.285 277.35 185.389 277.489 185.407 277.65C185.479 278.607 185.528 279.585 185.582 280.551C184.956 279.81 184.096 279.172 183.78 278.333C180.819 270.719 177.962 263.065 175.212 255.373C174.568 253.568 173.698 253.021 171.788 253.043C159.084 253.155 146.789 255.84 134.481 258.561C127.683 260.065 120.876 261.659 114.082 263.145C112.699 263.436 112.109 264.056 111.794 265.389C110.271 271.805 108.645 278.18 107.054 284.569C106.843 285.39 106.617 286.207 106.424 286.984C104.36 287.146 104.833 286.05 105.095 285.022C106.825 278.023 108.627 271.042 110.181 263.989C110.55 262.372 110.447 260.384 109.829 258.844C104.216 244.693 93.03 237.599 78.1137 235.422C72.7121 234.636 67.2744 234.133 61.8728 233.402C60.4222 233.191 59.5302 233.595 58.5706 234.636C52.176 241.565 45.7426 248.458 39.2708 255.315C38.7617 255.827 37.9058 256.029 37.2255 256.374C37.0498 256.11 36.8561 255.854 36.6804 255.589C44.0417 247.66 51.4165 239.736 58.9896 231.574C57.4714 229.828 56.0342 228.081 54.4845 226.438C49.2406 221.033 43.857 215.771 38.7167 210.258C30.6931 201.652 28.0171 197.018 22.2867 182.854C21.2189 183.159 20.1017 183.451 19.0024 183.797C13.4972 185.503 7.98751 187.24 2.4823 188.892C1.78401 189.112 0.928048 188.874 0.157678 188.839C0.78839 188.327 1.34702 187.595 2.06333 187.352C8.00554 185.417 13.9522 183.518 19.9485 181.741C21.6109 181.256 22.3813 180.38 22.8137 178.764C25.8907 167.491 25.296 156.227 22.7462 145.016C21.0523 137.595 18.9529 130.277 16.8715 122.959C16.6463 122.196 15.4569 121.347 14.5559 121.15C9.81207 120.05 5.00064 119.166 0.211739 118.205L0 117.437C0.612692 117.24 1.27494 116.791 1.83807 116.88C5.316 117.473 8.79392 118.048 12.2223 118.901C14.3577 119.439 15.7002 119.04 17.3085 117.419C25.9448 108.665 32.6754 98.7606 37.0994 87.3931C40.5277 78.6026 42.3974 69.4934 42.956 60.1372C43.0055 59.0732 42.4109 57.6994 41.645 56.9137C36.6804 51.8002 31.5761 46.8078 26.4494 41.7032C27.026 40.3878 27.7423 40.9445 28.6163 41.7885C33.4593 46.4846 38.3022 51.1896 43.2128 55.8048C43.8074 56.3615 44.8932 56.9048 45.623 56.7701C62.5801 53.6094 78.3705 47.8224 91.6334 36.6301C93.8184 34.7938 95.7421 32.6568 97.8234 30.7173C98.9587 29.6713 99.0983 28.5983 98.6613 27.1392C96.3547 19.2376 94.1563 11.2957 91.9127 3.36715C91.8091 2.999 91.6154 2.60842 91.6334 2.23578C91.6559 1.48603 91.7776 0.745261 91.8632 0C92.3317 0.556701 93.0705 1.04606 93.2643 1.68357C94.8726 7.10243 96.3908 12.5437 97.9495 17.9626C98.7199 20.6788 99.5939 23.3815 100.243 26.1156C100.608 27.6914 101.482 28.4412 102.95 29.0248C117.267 34.6906 131.9 34.7579 146.722 31.5614C150.637 30.7173 154.484 29.5321 158.363 28.5983C159.813 28.2571 160.449 27.5567 160.773 26.1246C162.557 18.3307 164.431 10.5594 166.314 2.788C166.49 2.1415 167.053 1.5848 167.431 0.992186C167.711 1.1134 167.977 1.2436 168.26 1.3738C168.17 2.02927 168.121 2.69821 167.981 3.34021C166.247 10.7434 164.472 18.1287 162.841 25.5723C162.647 26.5107 162.944 27.9473 163.589 28.6387C177.419 43.3105 194.552 51.7238 214.78 54.1257C215.582 54.22 216.753 53.6229 217.348 52.9944C223.673 46.3229 229.93 39.5797 236.206 32.8813C236.877 32.1809 237.553 30.8116 238.815 32.6164H238.797ZM60.2735 230.201C63.7019 226.533 66.9681 223.098 70.1171 219.565C70.5361 219.093 70.6082 217.944 70.3289 217.316C69.0859 214.258 67.7274 211.247 66.2563 208.292C60.4537 196.668 52.6509 186.567 42.1135 178.598C41.3792 178.05 40.298 177.3 39.6312 177.493C34.5089 178.917 29.4182 180.56 24.2464 182.158C26.607 190.612 30.4003 198.02 36.0272 204.327C43.8255 213.059 52.0247 221.428 60.2735 230.201ZM253.726 106.429C248.41 99.0614 243.257 91.9949 238.224 84.8251C233.832 78.5712 229.777 72.0749 225.218 65.9152C222.772 62.5975 219.605 59.7825 216.559 56.5366C212.644 60.7343 209.117 64.4561 205.702 68.2947C205.342 68.7122 205.535 69.9154 205.869 70.5574C208.175 74.9482 210.446 79.3614 212.96 83.6444C219.073 94.0197 226.808 103.044 236.891 109.993C237.549 110.447 238.553 111.004 239.197 110.819C244.108 109.441 248.978 107.892 253.726 106.429ZM112.807 261.6C133.206 257.578 152.704 251.342 173.662 251.252C172 246.78 170.531 242.592 168.833 238.461C168.338 237.455 167.475 236.676 166.422 236.284C160.809 234.506 155.029 234.578 149.271 235.485C138.239 237.227 128.066 241.564 117.79 245.55C117.477 245.685 117.195 245.883 116.963 246.131C116.732 246.38 116.554 246.675 116.443 246.996C115.204 251.696 114.087 256.41 112.807 261.6ZM17.6599 119.471C18.2546 119.812 18.4979 120.036 18.7817 120.099C23.3453 121.033 27.882 121.971 32.4681 122.793C33.0628 122.896 33.9638 122.452 34.4414 121.989C48.29 108.611 55.4576 92.2777 56.9037 73.4352C56.9398 72.7573 57.0254 71.8055 56.6424 71.4239C52.9347 67.6841 49.1279 64.0431 44.9472 59.9846C43.0596 83.3256 34.5135 103.178 17.6464 119.471H17.6599ZM46.5105 58.4851C50.2362 62.2563 53.7637 65.8703 57.3858 69.4081C57.7867 69.8077 58.7328 69.9468 59.3455 69.8346C74.2934 66.9972 88.1735 61.8477 99.6209 51.6296C104.428 47.3421 104.41 47.3196 102.698 41.3575C101.731 37.9901 100.758 34.6245 99.7786 31.2606C85.2497 46.9021 66.7789 54.2784 46.5105 58.4671V58.4851ZM41.0188 175.06C46.3844 173.399 51.349 171.9 56.282 170.243C56.9127 170.036 57.557 169.04 57.6831 168.326C58.2598 165.008 58.8905 161.686 59.0481 158.346C59.4176 150.399 56.9488 142.893 55.2909 135.225C54.2097 130.277 52.1464 127.61 46.7448 127.314C43.1452 127.125 39.5952 126.035 35.7839 125.294C36.284 142.125 41.9288 158.031 41.0188 175.038V175.06ZM253.434 108.341C248.874 109.733 244.784 111.093 240.621 112.216C238.738 112.719 237.963 113.652 237.576 115.516C234.485 130.43 236.161 145.061 239.661 159.692C240.445 162.952 241.824 164.398 245.203 164.793C248.96 165.219 252.663 166.18 256.105 166.84C254.537 157.089 252.717 147.571 251.546 137.972C250.379 128.216 251.249 118.461 253.434 108.341ZM222.267 220.472C230.345 200.951 237.932 181.709 256.074 168.689C250.969 167.661 246.428 166.678 241.846 165.866C241.135 165.735 240.067 166.13 239.49 166.633C236.139 169.543 232.602 172.313 229.66 175.576C223.56 182.356 219.524 190.396 215.978 198.653C214.298 202.523 212.69 206.424 210.991 210.456L222.267 220.472ZM35.5767 123.395C41.3972 124.562 46.7132 125.657 52.0608 126.618C52.6374 126.721 53.5114 126.115 54.0205 125.608C64.702 115.026 70.401 102.236 71.5543 87.4739C71.6083 86.7601 71.5362 85.7769 71.0992 85.3145C67.2699 81.3233 63.355 77.4399 59.4581 73.5295C59.2283 73.6103 58.9851 73.6956 58.7778 73.7809C57.0524 92.8704 49.8262 109.509 35.5767 123.39V123.395ZM159.854 29.8868C140.261 35.7681 121.115 38.0936 101.5 30.2549C102.738 34.6726 103.946 38.4708 104.838 42.3452C105.324 44.5047 106.5 45.5687 108.559 46.3589C124.151 52.3075 139.608 50.4802 155.047 45.7932C155.355 45.6643 155.633 45.4721 155.862 45.2293C156.091 44.9864 156.266 44.6982 156.376 44.3835C157.552 39.7637 158.615 35.1126 159.854 29.8868ZM161.863 29.4872C160.692 34.4571 159.611 38.8569 158.651 43.2835C158.603 43.642 158.63 44.0065 158.73 44.3541C158.83 44.7018 159.001 45.0251 159.232 45.3038C170.734 57.6725 184.943 65.0577 201.9 67.3698C202.639 67.4641 203.702 67.4641 204.125 67.0376C207.599 63.4999 210.946 59.8499 214.685 55.8632C193.741 53.1291 176.311 44.6259 161.863 29.4872ZM203.702 70.297C199.945 74.3062 196.408 78.0235 193.002 81.8306C192.669 82.2122 192.818 83.2942 193.106 83.8778C194.381 86.4907 195.728 89.0588 197.143 91.6223C202.283 100.96 208.662 109.324 217.51 115.655C218.24 116.18 219.321 116.885 220.01 116.692C225.29 115.21 230.498 113.54 236.332 111.735C220.938 101.046 211.55 86.4458 203.702 70.297ZM59.8455 71.5676C62.5891 74.3017 65.0714 76.8293 67.6078 79.303C72.6265 84.1786 72.6445 84.1966 79.5283 82.4457C90.3134 79.6846 100.157 75.1906 108.181 67.3878C109.262 66.3238 109.613 65.4034 109.14 63.886C107.951 60.236 107.005 56.5187 105.942 52.8238C105.626 51.6924 105.243 50.5611 104.77 49.0705C92.3587 61.951 76.8522 68.0298 59.8455 71.5631V71.5676ZM236.084 113.661C231.097 115.188 226.642 116.651 222.11 117.904C220.339 118.402 219.542 119.228 219.154 121.033C216.496 133.756 218.037 146.251 221.434 158.619C221.619 159.342 222.727 160.137 223.565 160.343C226.502 161.075 229.503 161.565 232.494 162.157C234.49 162.539 236.463 162.938 238.819 163.392C234.404 146.875 232.3 130.69 236.084 113.648V113.661ZM238.125 165.242C237.274 164.995 236.76 164.806 236.251 164.703C232.161 163.872 228.11 162.956 223.984 162.323C222.812 162.144 221.272 162.436 220.29 163.091C215.712 166.117 211.834 169.973 209.194 174.652C204.891 182.306 201.062 190.208 197.043 197.984C201.4 201.876 205.279 205.329 209.563 209.14C216.375 192.605 222.853 176.322 238.125 165.242ZM42.3343 176.443C56.6875 187.209 65.7427 201.131 72.176 216.781C72.5589 216.669 72.7526 216.678 72.8382 216.579C75.0772 214.231 77.2982 211.856 79.5147 209.49C83.3621 205.333 83.3621 205.324 81.0014 200.134C76.1404 189.454 69.5315 180.061 60.0303 172.802C59.2869 172.232 58.0796 171.63 57.3272 171.841C52.4932 173.188 47.7179 174.764 42.3343 176.443ZM155.682 47.4363C139.094 52.312 122.926 54.0404 106.315 47.2972C107.888 52.8642 109.289 57.888 110.757 62.8893C110.861 63.2305 111.316 63.5493 111.686 63.7109C124.412 69.1028 137.31 68.4024 150.249 64.5459C150.866 64.3574 151.718 63.886 151.844 63.3876C153.15 58.2561 154.34 53.0842 155.682 47.4363ZM202.152 69.233C193.43 67.8233 185.389 65.5561 177.847 61.7265C170.369 57.9104 163.899 52.7879 157.804 46.5878L153.993 62.7456C154.952 63.6435 155.858 64.4112 156.66 65.2283C165.265 73.8886 175.64 79.294 187.817 81.3413C188.898 81.5163 190.511 81.5343 191.115 80.9237C194.813 77.2468 198.305 73.3589 202.152 69.233ZM175.243 250.206C179.913 244.375 185.683 239.511 192.227 235.889C199.318 231.916 206.59 228.257 213.775 224.44C215.789 223.381 217.78 222.268 220.006 221.069C216.397 217.854 213.118 214.86 209.739 211.978C209.324 211.605 208.225 211.502 207.716 211.758C200.08 215.731 192.417 219.686 184.866 223.839C179.605 226.698 174.989 230.604 171.306 235.314C170.824 235.952 170.454 237.083 170.698 237.77C172.04 241.783 173.581 245.73 175.248 250.206H175.243ZM61.5845 231.368C62.5621 231.538 63.0892 231.651 63.6118 231.722C69.0134 232.436 74.433 232.993 79.8076 233.891C94.0977 236.275 104.937 243.292 110.951 256.563C111.091 256.864 111.388 257.129 111.776 257.632C112.807 253.465 113.821 249.6 114.695 245.716C114.871 245.011 114.695 244.145 114.452 243.449C110.532 232.701 103.103 225.545 91.5658 223.085C85.5516 221.805 79.3796 221.23 73.2797 220.391C72.703 220.31 71.8651 220.427 71.5317 220.786C68.2475 224.176 65.0489 227.646 61.5845 231.354V231.368ZM18.5429 121.787C23.9986 141.133 30.0985 159.921 24.2238 180.241C29.2245 178.683 33.7161 177.341 38.1581 175.846C38.6446 175.671 39.1177 174.643 39.1177 174.01C39.1357 170.333 39.2934 166.629 38.8383 162.988C37.3021 150.655 35.5541 138.34 33.8197 126.021C33.7296 125.505 33.1034 124.768 32.6123 124.661C28.1072 123.682 23.5571 122.816 18.5429 121.81V121.787ZM167.391 234.407C165.598 229.59 163.949 225.051 162.165 220.566C161.944 220 160.994 219.417 160.336 219.349C156.745 219.017 153.146 218.442 149.6 218.671C141.906 219.156 134.914 222.299 127.661 224.526C122.714 226.052 120.074 228.602 119.547 233.68C119.214 236.939 118.078 240.127 117.222 243.683C122.309 241.801 126.908 239.983 131.594 238.376C141.158 235.103 150.839 232.297 161.187 233.428C163.152 233.635 165.084 234.035 167.391 234.407ZM169.477 234.663C179.419 222.092 194.403 217.607 207.338 209.769C203.544 206.388 199.963 203.156 196.314 199.99C195.926 199.654 194.931 199.524 194.476 199.766C187.443 203.51 180.302 207.102 173.536 211.246C170.351 213.199 167.814 216.211 165.143 218.878C164.616 219.399 164.359 220.647 164.589 221.352C166.044 225.653 167.688 229.891 169.477 234.663ZM115.893 241.074C117.029 236.423 118.114 232.05 119.146 227.659C119.25 227.233 119.096 226.721 118.939 226.281C116.055 217.922 110.825 211.65 101.806 209.374C96.6296 208.076 91.264 207.501 85.948 206.752C85.2137 206.657 84.164 207.272 83.5693 207.865C81.4339 209.984 79.4156 212.224 77.3793 214.433C76.19 215.722 75.0367 217.046 73.6536 218.582C78.1587 219.165 82.1998 219.664 86.2228 220.22C99.3867 222.057 109.649 227.902 115.172 240.271C115.263 240.446 115.474 240.585 115.893 241.074ZM74.1447 87.7568L73.4284 88.1249C71.9102 103.08 66.1211 116.158 54.9846 127.233C59.7735 128.18 64.0848 129.083 68.3962 129.846C68.9188 129.94 69.7432 129.464 70.1937 129.029C78.5326 120.701 83.0107 110.649 83.9883 99.0839C84.0378 98.4553 83.8486 97.6203 83.4252 97.1848C80.3887 93.9927 77.2577 90.8815 74.1447 87.7568ZM217.168 117.635C204.788 108.795 197.377 96.902 190.998 83.9182C187.898 87.218 185.051 90.1811 182.348 93.2475C182.005 93.647 182.091 94.7111 182.366 95.2857C183.564 97.7595 184.857 100.197 186.204 102.604C190.137 109.598 194.949 115.897 201.557 120.741C202.233 121.244 203.337 121.796 204.04 121.603C208.27 120.45 212.442 119.098 217.168 117.635ZM86.3399 96.884C90.1873 100.767 93.895 104.534 97.6702 108.243C98.0216 108.593 98.8506 108.678 99.4002 108.584C104.874 107.583 110.1 105.899 114.835 102.922C119.34 100.067 119.34 100.076 117.912 94.9445L117.249 92.6908C116.339 89.4853 115.416 86.2797 114.488 83.0383C104.766 87.4425 94.5392 90.1273 86.3399 96.884ZM216.825 119.601C213.19 120.719 209.207 121.882 205.288 123.215C204.652 123.435 204.067 124.382 203.887 125.087C201.404 135.418 202.594 145.591 205.391 155.674C205.507 155.986 205.693 156.267 205.937 156.495C206.18 156.722 206.473 156.89 206.792 156.985C210.901 157.888 215.037 158.664 219.199 159.495C218.154 152.752 216.668 146.246 216.28 139.683C215.884 133.123 216.595 126.483 216.825 119.601ZM219.447 161.381C216.735 160.842 214.591 160.721 212.717 159.962C206.846 157.587 202.792 160.056 199.273 164.344C198.314 165.515 197.124 166.557 196.44 167.845C193.092 174.328 189.812 180.846 186.601 187.397C186.407 187.766 186.497 188.542 186.776 188.798C189.732 191.514 192.75 194.181 196.061 197.126C201.603 183.765 206.864 170.629 219.447 161.381ZM55.345 129.114C59.1743 142.421 63.1252 155.288 59.3995 169.242C61.6521 168.573 63.4721 168.048 65.2742 167.473C73.6131 164.86 73.8383 164.474 74.0005 155.71C74.1221 147.827 71.6939 140.432 69.5585 132.98C69.4369 132.526 68.9999 131.889 68.5989 131.804C64.3326 130.883 60.0483 130.057 55.345 129.114ZM84.664 203.973C87.6374 200.803 90.3089 198.006 92.8723 195.124C93.0637 194.862 93.1939 194.561 93.2531 194.242C93.3124 193.924 93.2992 193.596 93.2147 193.283C89.2637 183.271 83.6009 174.391 74.8204 167.675C74.3159 167.284 73.4554 166.831 72.9328 166.988C68.9098 168.142 64.9093 169.43 60.4492 170.822C72.0408 179.653 79.312 190.926 84.664 203.973ZM115.483 79.6128C115.956 79.5005 116.326 79.3255 116.673 79.3569C117.128 79.3928 117.601 79.5499 118.038 79.7295C127.476 83.5815 137.004 82.971 146.568 80.2638C147.186 80.0887 148.037 79.6083 148.163 79.1144C149.262 74.9796 150.204 70.8043 151.312 66.1173C137.919 69.9334 124.944 71.0153 111.501 65.4393C112.947 70.6427 114.19 75.0559 115.483 79.6128ZM153.578 64.6896L150.357 78.3557C151.51 79.2806 152.461 79.9091 153.263 80.6993C159.976 87.3617 167.986 91.6761 177.424 93.3642C178.154 93.4944 179.271 93.6246 179.658 93.234C182.749 90.1362 185.713 86.9083 189.047 83.3481C174.923 81.0854 163.431 75.02 153.578 64.6896ZM201.039 122.618C191.245 115.3 185.375 105.787 180.343 95.3172C176.446 99.4969 172.892 103.295 169.589 106.842L172.626 112.467C175.46 117.684 178.766 122.569 183.573 126.29C184.276 126.829 185.519 127.301 186.285 127.085C191.043 125.77 195.741 124.239 201.039 122.618ZM86.5877 99.6989C86.3399 99.8291 86.0967 99.9773 85.8534 100.116C84.4523 111.641 79.9292 121.783 71.3786 130.475C76.8162 131.557 81.7448 132.585 86.7094 133.438C87.3401 133.541 88.3042 132.899 88.8267 132.342C93.9986 126.888 96.9224 120.382 97.882 113.037C97.9856 112.256 97.882 111.174 97.4089 110.653C93.877 106.936 90.2233 103.331 86.6057 99.6989H86.5877ZM161.129 217.594C159.678 213.639 158.435 210.083 157.02 206.599C156.754 205.953 155.799 205.212 155.119 205.176C151.934 204.965 148.582 204.332 145.573 205.055C139.049 206.604 132.72 208.889 126.327 210.909C125.854 211.066 125.241 211.511 125.12 211.937C124.02 216.139 123.007 220.368 121.867 224.943C134.711 220.279 146.897 214.739 161.129 217.594ZM202.139 124.162C197.53 125.572 193.403 126.968 189.187 128.064C187.222 128.567 186.492 129.613 186.159 131.399C184.92 138.3 185.501 145.102 187.24 151.84C187.38 152.415 187.961 153.228 188.47 153.331C193.363 154.399 198.273 155.333 203.553 156.388C200.882 145.645 199.535 135.184 202.139 124.162ZM203.571 158.224C199.409 157.385 195.669 156.891 192.088 155.827C188.831 154.853 186.529 155.836 184.416 158.067C183.974 158.521 183.483 158.938 183.069 159.41C178.609 164.227 176.23 170.144 173.856 176.057C173.698 176.447 173.82 177.215 174.113 177.48C177.527 180.618 180.983 183.693 184.708 187.002C189.205 176.147 193.471 165.623 203.571 158.224ZM74.6808 164.528C79.3481 163.082 83.4387 161.722 87.5834 160.572C89.2097 160.119 89.8899 159.248 90.2233 157.713C91.3226 152.505 90.0837 147.508 89.2953 142.39C88.4528 136.966 85.993 134.089 80.195 133.985C78.0776 133.932 75.9647 133.182 73.8383 132.782C73.113 132.643 72.3787 132.54 71.365 132.374C74.442 143.032 77.537 153.255 74.6718 164.528H74.6808ZM193.984 197.885C190.862 195.088 187.885 192.367 184.826 189.763C184.483 189.458 183.461 189.579 182.96 189.844C178.694 191.999 174.266 193.957 170.283 196.543C166.598 198.935 163.359 202.002 159.989 204.844C159.516 205.243 159.029 206.168 159.187 206.653C160.426 210.375 161.845 214.043 163.341 218.119C171.45 207.888 183.443 204.188 193.984 197.885ZM95.0708 192.839C98.4451 189.216 101.54 185.961 104.563 182.607C104.914 182.194 105.018 181.274 104.82 180.753C102.085 173.677 98.1658 167.374 92.102 162.512C91.5253 162.058 90.6018 161.502 90.0566 161.659C85.4074 163.001 80.8077 164.492 75.7575 166.077C84.9524 173.291 90.7549 182.279 95.0708 192.839ZM119.79 223.43C119.968 223.349 120.143 223.263 120.317 223.174C120.894 220.912 121.489 218.64 122.011 216.386C122.345 214.963 123.088 213.347 122.718 212.076C120.786 205.454 117.168 199.905 110.086 197.782C105.752 196.475 101.153 196.035 96.6611 195.272C96.1745 195.182 95.4042 195.272 95.1068 195.573C92.2236 198.554 89.4079 201.602 86.1733 205.059C100.648 206.199 113.816 208.637 119.79 223.43ZM147.623 81.8486C136.901 84.8386 126.629 85.1663 115.862 80.9417L120.425 97.0726C121.786 97.1354 122.872 96.9334 123.746 97.2611C129.918 99.6047 136.139 99.4296 142.415 97.8537C143.099 97.6786 143.973 96.9379 144.149 96.3048C145.352 91.6896 146.379 87.0385 147.605 81.8486H147.623ZM177.897 95.2767C167.409 93.3148 158.813 88.8837 151.727 81.7184C150.591 80.5601 149.772 80.8295 149.402 82.3783C148.303 87.0115 147.204 91.6537 146.181 95.9367C147.492 96.7987 148.69 97.3644 149.578 98.1994C154.002 102.393 159.124 105.333 165.134 106.676C165.891 106.842 167.062 106.779 167.49 106.325C170.927 102.837 174.23 99.2141 177.897 95.2767ZM84.7947 95.7167C92.174 89.8265 101.018 86.6928 109.708 83.2448C110.825 82.8177 111.896 82.2808 112.906 81.6421C113.325 81.3817 113.753 80.614 113.659 80.2144C112.609 76.2232 111.438 72.2679 110.194 67.8951C100.162 77.8708 87.7996 82.6522 74.6718 85.3863C78.0281 88.8163 81.3348 92.179 84.7947 95.7167ZM182.695 187.824C179.077 184.6 175.752 181.552 172.31 178.643C171.905 178.293 170.824 178.329 170.261 178.598C167.603 179.859 164.859 181.063 162.431 182.701C159.494 184.668 156.799 187.011 154.087 189.278C153.619 189.669 153.182 190.594 153.34 191.061C154.808 195.326 156.403 199.546 158.11 204.161C164.584 195.954 174.054 192.893 182.695 187.824ZM125.732 209.113C135.662 205.522 145.05 201.517 155.817 203.362C154.277 199.218 152.736 195.434 151.479 191.568C150.889 189.741 149.844 189.202 148.006 189.112C141.703 188.798 136.085 191.133 130.418 193.279C130.017 193.431 129.544 193.853 129.458 194.217C128.219 199.034 127.03 203.865 125.732 209.113ZM96.8909 193.535C108.69 194.406 118.916 196.969 123.741 209.338C125.003 204.215 126.066 199.919 127.115 195.618C127.17 195.398 127.255 195.106 127.152 194.931C125.651 192.408 124.426 189.606 122.502 187.411C118.745 183.137 113.271 182.787 107.991 182.288C107.608 182.243 107.081 182.629 106.784 182.948C103.639 186.27 100.526 189.633 96.8909 193.535ZM160.782 116.306L162.814 119.13C165.472 122.824 168.058 126.569 170.792 130.201C171.225 130.766 172.378 131.341 172.982 131.166C176.203 130.349 179.343 129.285 182.46 128.311C179.838 125.33 177.18 122.717 175.036 119.74C172.865 116.759 171.207 113.432 169.351 110.227C168.63 108.956 167.882 108.66 166.801 109.845C164.769 112.045 162.71 114.241 160.782 116.306ZM185.736 154.669C182.447 154.009 179.807 153.38 177.131 153.017C176.074 152.896 175.007 153.135 174.104 153.694C168.999 157.246 166.886 162.718 164.733 168.137C164.602 168.501 164.837 169.233 165.174 169.525C167.305 171.518 169.495 173.435 171.905 175.576C175.203 167.805 178.266 160.191 185.736 154.669ZM184.663 129.536C181.469 130.52 178.69 131.242 176.032 132.261C175.572 132.466 175.159 132.762 174.819 133.132C174.479 133.502 174.218 133.938 174.054 134.412C172.797 139.368 173.184 144.343 174.423 149.263C174.563 149.793 174.986 150.588 175.401 150.682C178.622 151.432 181.87 152.033 185.456 152.765C183.582 144.94 182.816 137.528 184.663 129.536ZM100.526 112.979L99.702 113.504C98.5667 121.258 95.3321 128.086 89.7728 134.111C93.2868 134.825 96.3277 135.53 99.4047 135.979C100.139 136.082 101.238 135.534 101.765 134.942C105.019 131.38 107.094 126.906 107.708 122.129C107.798 121.5 107.672 120.656 107.289 120.23C105.108 117.751 102.802 115.381 100.526 112.979ZM89.3043 135.853C91.4352 143.624 93.7598 151.073 91.7866 159.172C94.778 158.251 97.2558 157.389 99.7921 156.743C101.473 156.316 102.081 155.365 102.31 153.798C103.081 148.59 101.576 143.728 100.125 138.852C100.004 138.399 99.3011 137.878 98.7965 137.761C95.8232 137.106 92.8543 136.549 89.3043 135.853ZM106.68 180.358C108.969 177.902 110.947 175.823 112.816 173.718C113.15 173.345 113.361 172.533 113.186 172.093C111.14 166.84 108.343 162.049 103.815 158.431C103.342 158.049 102.468 157.784 101.91 157.946C99.0082 158.75 96.143 159.706 92.8543 160.734C99.4092 166.063 103.603 172.613 106.698 180.358H106.68ZM143.352 99.8067C139.775 100.157 136.504 100.817 133.287 100.678C129.967 100.529 126.696 99.5463 123.376 99.021C121.908 98.792 121.241 99.681 121.583 101.005C122.399 104.09 123.322 107.156 124.007 109.531C125.755 109.625 127.066 109.468 128.201 109.818C131.905 110.95 135.843 111.087 139.617 110.218C140.234 110.079 141.05 109.414 141.212 108.84C142.009 105.917 142.64 102.927 143.352 99.8157V99.8067ZM100.247 110.317C102.815 112.957 105.194 115.43 107.64 117.868C107.852 118.057 108.392 118.057 108.744 117.989C113.249 117.172 117.623 115.866 121.367 113.145C121.944 112.737 122.538 111.708 122.417 111.125C121.682 108.036 120.736 104.992 119.759 101.571C113.952 106.37 107.329 108.754 100.247 110.317ZM143.316 108.377C144.784 109.239 145.875 109.904 146.969 110.546C150.1 112.373 153.2 114.241 156.385 115.996C156.903 116.283 158.038 116.378 158.358 116.068C160.732 113.733 162.985 111.277 165.404 108.705C156.304 105.796 154.97 105.082 148.186 99.3083C146.875 98.1905 145.776 98.2084 145.316 99.892C144.478 102.891 143.879 105.948 143.316 108.377ZM170.067 176.569C167.675 174.432 165.652 172.568 163.53 170.786C163.134 170.445 162.273 170.099 161.931 170.279C157.682 172.546 152.957 174.176 149.92 178.198C149.569 178.67 149.006 179.361 149.145 179.761C150.06 182.54 151.123 185.269 152.294 188.448C157.115 182.49 163.809 180.147 170.067 176.569ZM108.951 180.636C117.659 181.247 124.439 183.869 127.796 191.945C128.773 188.964 129.49 186.122 130.174 183.267C130.246 182.98 130.278 182.607 130.138 182.378C129.3 181.036 128.372 179.747 127.552 178.405C125.07 174.364 120.998 173.466 116.628 173.161C116.245 173.134 115.7 173.439 115.407 173.754C113.393 175.846 111.42 177.987 108.951 180.636ZM149.902 187.465C148.916 184.816 147.938 182.517 147.226 180.147C146.717 178.513 145.794 177.655 144.095 178.041C140.599 178.84 137.139 179.756 133.679 180.672C133.278 180.78 132.751 181.193 132.666 181.548C131.81 184.677 131.039 187.828 130.129 191.433C136.752 188.964 142.838 186.733 149.902 187.465ZM169.324 132.387C166.49 128.05 163.746 123.875 161.034 119.695C160.304 118.564 159.309 118.102 158.291 119.067C156.128 121.204 154.128 123.484 152.403 125.339C153.416 126.488 154.196 127.256 154.813 128.136C156.214 130.111 157.471 132.212 158.957 134.12C159.354 134.627 160.516 134.991 161.156 134.816C164.008 134.093 166.805 133.15 169.324 132.387ZM173.009 152.159C169.639 151.472 166.841 150.871 164.026 150.377C163.566 150.287 162.962 150.574 162.521 150.862C159.011 153.178 157.489 156.801 156.052 160.478C155.93 160.792 156.142 161.421 156.403 161.681C158.462 163.594 160.566 165.448 162.886 167.54C165.283 161.731 167.625 156.334 173.009 152.159ZM171.91 150.071V133.514C168.81 134.452 165.864 135.346 162.944 136.284C162.647 136.374 162.278 136.796 162.278 137.083C162.224 140.41 162.156 143.755 162.278 147.086C162.296 147.553 163.264 148.253 163.886 148.41C166.594 149.061 169.36 149.555 171.91 150.071ZM104.815 154.844C114.199 152.361 115.321 153.892 112.888 143.005C112.767 142.475 112.663 141.909 112.402 141.438C112.172 140.994 111.807 140.401 111.388 140.307C108.415 139.629 105.41 139.059 102.662 138.511C103.419 144.172 104.117 149.537 104.815 154.844ZM115.515 170.894C117.402 168.869 119.484 166.647 121.948 163.998C119.939 161.089 117.961 158.108 115.862 155.234C115.461 154.696 114.447 154.121 113.92 154.251C111.037 155.001 108.221 155.966 105.829 156.716C109.082 161.475 112.244 166.09 115.515 170.894ZM140.514 111.946C135.707 112.885 131.368 112.71 127.07 111.385C126.633 111.264 125.061 112.674 125.165 113.136C125.845 116.279 126.827 119.363 127.841 122.91C129.116 121.101 130.237 120.898 131.864 121.473C133.314 121.976 135.013 122.012 136.585 121.958C137.234 121.922 138.207 121.226 138.383 120.643C139.185 117.958 139.743 115.197 140.514 111.946ZM140.496 120.36C142.09 121.163 143.28 121.693 144.379 122.335C145.744 123.148 147.001 124.131 148.416 124.854C148.898 125.11 149.947 125.083 150.281 124.75C152.421 122.658 154.407 120.45 156.529 118.2C154.286 117.163 152.263 116.422 150.456 115.322C148.627 114.227 147.05 112.728 145.298 111.497C143.951 110.564 142.78 110.887 142.361 112.463C141.617 115.26 141.036 118.088 140.496 120.36ZM103.626 136.823C104.901 137.083 106.532 137.433 108.131 137.757C113.762 138.897 114.668 138.394 116.61 132.993C116.835 132.333 117.083 131.651 117.15 130.964C117.204 130.466 117.132 129.788 116.835 129.46C114.632 127.116 112.379 124.845 110.334 122.762C108.027 127.61 105.874 132.086 103.603 136.823H103.626ZM147.848 176.51C152.258 173.713 156.435 171.073 160.782 168.303C158.723 166.476 156.691 164.631 154.578 162.889C154.227 162.593 153.286 162.539 152.916 162.786C150.47 164.375 148.114 166.054 145.771 167.765C145.42 168.021 145.05 168.707 145.154 169.053C146.01 171.612 146.978 174.153 147.848 176.51ZM110.055 120.036C112.249 122.223 114.51 124.499 116.817 126.735C117.047 126.941 117.551 127.085 117.848 126.995C120.209 126.281 122.57 125.577 124.858 124.67C125.331 124.481 125.854 123.417 125.732 122.892C125.052 120.028 124.169 117.204 123.426 114.636C118.921 116.458 114.528 118.236 110.055 120.036ZM130.422 179.801C130.634 179.774 130.823 179.747 131.017 179.711L133.238 170.768C132.346 169.991 131.733 169.623 131.364 169.112C130.769 168.299 130.422 167.275 129.773 166.517C128.305 164.784 124.894 163.738 123.831 164.766C121.75 166.75 119.844 168.918 117.538 171.388C123.728 171.998 128.165 174.369 130.422 179.801ZM145.474 175.725C144.789 173.843 144.127 171.769 143.239 169.794C142.834 168.941 141.856 167.572 141.352 167.657C139.387 167.989 136.527 168.276 135.81 169.556C134.378 172.102 134.13 175.289 133.364 178.355C137.572 177.444 141.419 176.618 145.474 175.725ZM157.52 135.929C155.925 133.429 154.565 131.148 153.06 128.935C152.146 127.556 150.911 127.027 149.533 128.414C148.222 129.756 146.983 131.184 145.74 132.54C146.699 133.168 147.744 133.55 148.271 134.282C150.893 137.959 150.839 138.004 155.268 136.661C156.016 136.423 156.763 136.172 157.52 135.929ZM153.831 159.342C155.98 155.971 157.975 152.828 160.088 149.492C158.056 149.214 155.398 148.029 153.831 148.846C151.902 149.829 150.591 152.366 149.632 154.489C149.353 155.127 151.101 156.685 152.006 157.749C152.574 158.391 153.304 158.898 153.831 159.342ZM117.083 153.183L123.304 162.467C124.858 160.797 126.327 159.199 127.778 157.654C126.678 155.831 125.75 154.108 124.579 152.536C124.178 151.979 123.11 151.477 122.462 151.598C120.633 151.944 118.849 152.635 117.083 153.183ZM116.137 151.495C116.889 151.284 117.731 151.05 118.551 150.79C123.011 149.402 123.255 149.039 122.047 144.666C121.781 143.728 121.191 142.444 120.421 142.156C118.601 141.478 116.592 141.294 114.614 140.922C115.141 144.509 115.614 147.867 116.137 151.495ZM159.894 147.584V137.245L153.056 139.301C153.02 140.136 153.02 140.747 152.952 141.357C152.452 146.116 152.434 146.116 157.236 147.108C158.092 147.274 158.953 147.418 159.894 147.584ZM137.572 124.158C135.211 123.817 133.148 123.287 131.12 123.354C130.21 123.372 128.535 124.679 128.602 125.244C128.863 127.404 129.701 129.487 130.12 130.968C131.976 130.78 133.319 130.717 134.616 130.452C135.229 130.322 136.126 129.922 136.297 129.442C136.855 127.758 137.153 125.99 137.572 124.158ZM152.065 160.77C147.05 156.137 147.78 154.682 141.892 160.411C142.59 162.216 143.32 164.061 144.041 165.928L152.065 160.77ZM148.114 127.161C146.204 125.815 144.586 124.4 142.712 123.462C141.973 123.094 140.005 123.507 139.793 124.019C139.022 125.981 138.73 128.122 138.428 129.487C140.473 130.358 142.027 131.004 143.811 131.736L148.114 127.161ZM126.381 161.955C128.936 163.899 131.26 165.655 133.882 167.652C134.423 165.587 135.017 163.396 135.418 161.825C134.369 160.833 133.549 160.294 133.058 159.544C131.711 157.47 130.769 157.313 129.053 159.104C128.08 160.137 127.097 161.179 126.381 161.955ZM119.443 131.426C117.975 134.407 116.839 136.688 115.596 139.193C117.659 139.602 119.669 140.168 121.682 140.275C122.381 140.329 123.394 139.337 123.777 138.578C124.129 137.923 124.111 136.706 123.692 136.131C122.484 134.506 120.998 133.097 119.443 131.426ZM126.678 126.102C124.106 127.04 121.799 127.884 119.475 128.751C119.286 129.056 119.092 129.37 118.88 129.684C120.002 130.452 121.205 131.094 122.182 131.983C124.786 134.381 124.732 134.421 128.476 132.576L126.678 126.102ZM141.608 165.403C140.928 163.567 140.351 161.96 139.703 160.375C139.581 160.083 139.099 159.643 138.901 159.706C138.513 159.818 138.004 160.155 137.901 160.501C137.324 162.418 136.86 164.348 136.292 166.566L141.608 165.403ZM130.751 142.085C132.85 141.146 134.666 139.822 136.644 139.575C138.657 139.341 140.802 140.177 142.888 140.531C138.41 136.518 131.733 137.505 130.751 142.085ZM148.253 138.699L148.771 137.905C147.348 136.787 145.992 135.471 144.37 134.726C143.91 134.515 142.635 136.006 141.554 136.868C142.757 137.397 143.838 137.523 144.104 138.035C145.262 140.311 146.767 139.247 148.253 138.699ZM150.821 148.024C148.235 147.05 147.154 147.512 145.789 149.784C144.55 151.849 146.113 152.478 147.366 153.43C148.569 151.562 149.686 149.793 150.821 148.024ZM131.436 153.488C130.787 152.433 130.386 151.041 129.463 150.444C128.589 149.905 127.156 150.202 125.39 150.089C126.435 151.634 127.034 152.437 127.557 153.286C129.3 156.164 129.354 156.173 131.436 153.488ZM124.705 148.756C126.259 148.244 128.111 148.5 127.868 146.062C127.643 143.633 126.381 142.727 123.899 142.973C124.16 144.837 124.421 146.65 124.705 148.756ZM147.276 141.038C147.951 145.519 147.951 145.519 151.033 145.375C150.803 143.737 150.591 142.116 150.38 140.5C149.335 140.684 148.289 140.868 147.276 141.038ZM135.878 133.132C135.562 132.742 135.247 132.351 134.918 131.974C133.747 132.486 132.121 132.715 131.544 133.595C131.039 134.39 131.666 135.893 131.805 137.088C132.121 137.16 132.454 137.227 132.765 137.29C133.815 135.902 134.846 134.506 135.878 133.132ZM139.869 155.1C140.383 156.025 140.82 156.864 141.329 157.766L145.366 154.983C143.491 151.58 141.802 153.712 139.869 155.1ZM136.734 135.449L137.576 136.271C139.094 135.503 140.635 134.74 142.153 133.963C142.081 133.581 141.996 133.204 141.928 132.823C140.788 132.666 139.392 132.041 138.608 132.472C137.693 132.975 137.324 134.412 136.734 135.449ZM137.045 155.796C135.761 155.257 134.792 154.839 133.603 154.336L132.08 156.025C133.373 156.949 134.495 157.731 135.594 158.516C136.121 157.542 136.63 156.572 137.045 155.796ZM129.846 138.637L129.183 134.56C128.134 135.014 127.399 135.319 126.336 135.772C127.521 136.738 128.341 137.415 129.846 138.637ZM128.462 141.649L128.778 140.917C127.976 140.105 127.17 139.288 126.192 138.277C125.687 139.373 125.354 140.114 124.917 141.038L128.462 141.649Z" fill="white"/>
</svg>
