<svg width="59" height="44" viewBox="0 0 59 44" fill="none" xmlns="http://www.w3.org/2000/svg">
<path d="M59.0002 5.19901C56.8305 6.0775 54.4997 6.67107 52.0494 6.93936C54.5776 5.55704 56.4691 3.38142 57.3709 0.818471C54.9956 2.10768 52.3958 3.01514 49.6848 3.50141C47.8617 1.72275 45.4469 0.543829 42.8154 0.147675C40.1838 -0.248478 37.4828 0.160301 35.1316 1.31055C32.7804 2.46079 30.9105 4.28815 29.8124 6.50891C28.7142 8.72968 28.4492 11.2196 29.0584 13.5921C24.2453 13.3713 19.5368 12.2282 15.2385 10.237C10.9401 8.24583 7.14803 5.45107 4.10827 2.0341C3.0689 3.67235 2.47126 5.57178 2.47126 7.59466C2.4701 9.41572 2.96089 11.2089 3.90008 12.8151C4.83928 14.4212 6.19783 15.7908 7.85521 16.8021C5.93309 16.7462 4.05338 16.2717 2.37252 15.4179V15.5604C2.37233 18.1145 3.33922 20.59 5.10915 22.5669C6.87907 24.5437 9.343 25.9002 12.0829 26.4061C10.2998 26.847 8.43034 26.912 6.61576 26.596C7.38879 28.7937 8.89457 30.7155 10.9223 32.0923C12.9501 33.4691 15.3982 34.2321 17.9241 34.2744C13.6363 37.3501 8.34083 39.0184 2.88961 39.0111C1.92398 39.0114 0.959172 38.9598 0.000152588 38.8568C5.53345 42.1076 11.9746 43.8329 18.553 43.8261C40.8215 43.8261 52.9952 26.9735 52.9952 12.3575C52.9952 11.8826 52.9822 11.403 52.9588 10.9281C55.3267 9.36344 57.3707 7.42584 58.995 5.20614L59.0002 5.19901Z" fill="white"/>
</svg>
