<svg width="24" height="23" viewBox="0 0 24 23" fill="none" xmlns="http://www.w3.org/2000/svg">
<path opacity="0.7" d="M12 0.473389C5.38327 0.473389 0 5.38907 0 11.4299C0 17.4802 5.37346 22.3864 12 22.3864C18.6167 22.3864 24 17.4713 24 11.4299C24 5.37906 18.6271 0.473389 12 0.473389ZM12 16.9608C10.5617 16.9608 9.18233 16.4392 8.16531 15.5106C7.14828 14.582 6.57692 13.3226 6.57692 12.0093C6.57692 10.6961 7.14828 9.43668 8.16531 8.50809C9.18233 7.57951 10.5617 7.05783 12 7.05783H12.2429L11.4288 6.31511C11.2774 6.1768 11.1923 5.98921 11.1923 5.79362C11.1923 5.59802 11.2774 5.41044 11.4288 5.27213C11.5803 5.13382 11.7858 5.05612 12 5.05612C12.2142 5.05612 12.4197 5.13382 12.5712 5.27213L14.8788 7.37915C14.9539 7.44763 15.0134 7.52893 15.054 7.61841C15.0945 7.70789 15.1154 7.80379 15.1154 7.90064C15.1154 7.99749 15.0945 8.09339 15.054 8.18287C15.0134 8.27235 14.9539 8.35365 14.8788 8.42213L12.5712 10.5291C12.4197 10.6675 12.2142 10.7452 12 10.7452C11.7858 10.7452 11.5803 10.6675 11.4288 10.5291C11.2774 10.3908 11.1923 10.2033 11.1923 10.0077C11.1923 9.81207 11.2774 9.62448 11.4288 9.48617L12.4673 8.53801C12.33 8.53275 12.1731 8.53275 12 8.53275C11.2469 8.53275 10.5107 8.73664 9.88456 9.11866C9.25839 9.50067 8.77035 10.0436 8.48215 10.6789C8.19396 11.3142 8.11855 12.0132 8.26547 12.6876C8.41239 13.362 8.77504 13.9814 9.30756 14.4676C9.84007 14.9539 10.5185 15.285 11.2572 15.4191C11.9958 15.5533 12.7614 15.4844 13.4571 15.2213C14.1529 14.9581 14.7476 14.5125 15.166 13.9408C15.5844 13.3691 15.8077 12.6969 15.8077 12.0093C15.8077 11.8137 15.8928 11.6262 16.0443 11.4879C16.1957 11.3496 16.4012 11.2719 16.6154 11.2719C16.8296 11.2719 17.035 11.3496 17.1865 11.4879C17.338 11.6262 17.4231 11.8137 17.4231 12.0093C17.4214 13.3221 16.8495 14.5806 15.8328 15.5089C14.8162 16.4371 13.4378 16.9593 12 16.9608Z" fill="white"/>
</svg>
