<svg width="30" height="23" viewBox="0 0 30 23" fill="none" xmlns="http://www.w3.org/2000/svg">
<path fill-rule="evenodd" clip-rule="evenodd" d="M19.5 0.514648C21.459 0.514648 23.127 1.65824 23.745 3.25378H10.5C8.51088 3.25378 6.60322 3.97525 5.1967 5.25947C3.79018 6.54369 3 8.28546 3 10.1016V16.7166C2.12239 16.4331 1.36263 15.9081 0.82536 15.214C0.288089 14.5199 -0.000268392 13.6907 1.87448e-07 12.8408V4.62335C1.87448e-07 3.53366 0.474106 2.48859 1.31802 1.71806C2.16193 0.947529 3.30653 0.514648 4.5 0.514648H19.5ZM25.5 5.99292H10.5C9.30653 5.99292 8.16193 6.4258 7.31802 7.19633C6.47411 7.96686 6 9.01193 6 10.1016V18.319C6 19.4087 6.47411 20.4538 7.31802 21.2243C8.16193 21.9949 9.30653 22.4277 10.5 22.4277H25.5C26.6935 22.4277 27.8381 21.9949 28.682 21.2243C29.5259 20.4538 30 19.4087 30 18.319V10.1016C30 9.01193 29.5259 7.96686 28.682 7.19633C27.8381 6.4258 26.6935 5.99292 25.5 5.99292ZM21 14.2103C21 14.9368 20.6839 15.6335 20.1213 16.1472C19.5587 16.6609 18.7956 16.9495 18 16.9495C17.2044 16.9495 16.4413 16.6609 15.8787 16.1472C15.3161 15.6335 15 14.9368 15 14.2103C15 13.4839 15.3161 12.7872 15.8787 12.2735C16.4413 11.7598 17.2044 11.4712 18 11.4712C18.7956 11.4712 19.5587 11.7598 20.1213 12.2735C20.6839 12.7872 21 13.4839 21 14.2103Z" fill="white"/>
</svg>
